<?xml version="1.0" encoding="utf-8"?>
<!-- Generator: Adobe Illustrator 22.0.0, SVG Export Plug-In . SVG Version: 6.00 Build 0)  -->
<svg version="1.1" id="Layer_1" xmlns="http://www.w3.org/2000/svg" xmlns:xlink="http://www.w3.org/1999/xlink" x="0px" y="0px"
	 viewBox="0 0 512.2 512.2" style="enable-background:new 0 0 512.2 512.2;" xml:space="preserve">
<style type="text/css">
	.st0{fill:#4CAE50;}
</style>
<g>
	<g>
		<g>
			<path class="st0" d="M486,153.4c35.1-35.1,35.1-91.9,0-126.9c-35-35-91.8-35.1-126.8-0.1c0,0-0.1,0.1-0.1,0.1L70.9,314.2
				c-0.4,0.4-0.9,0.8-1.3,1.3l-33.2,33.1c-2.8,2.8-4.8,6.3-5.7,10.2l-30.2,127c-3.7,15.5,10.2,29.4,25.7,25.7l127-30.2
				c3.8-0.9,7.3-2.9,10.1-5.7l256.7-256.4c0,0,0,0,0,0c0,0,0,0,0,0L486,153.4C485.9,153.4,485.9,153.4,486,153.4z M455.8,56.7
				c13,13,16.8,31.6,11.5,47.9l-59.4-59.4C424.2,39.9,442.8,43.7,455.8,56.7z M195.2,352.2C195.2,352.2,195.2,352.2,195.2,352.2
				c-0.3-0.1-0.6-0.2-0.9-0.3c-0.1,0-0.2,0-0.2-0.1c-0.2-0.1-0.4-0.1-0.5-0.1c-0.1,0-0.1,0-0.2,0c-0.1,0-0.3-0.1-0.4-0.1
				c-0.1,0-0.2-0.1-0.4-0.1c-0.1,0-0.2,0-0.2,0c-0.2,0-0.3-0.1-0.5-0.1c-0.1,0-0.1,0-0.2,0c0,0-0.1,0-0.1,0c-0.1,0-0.2,0-0.3,0
				c-0.1,0-0.3,0-0.4-0.1c-0.2,0-0.4-0.1-0.6-0.1c-0.1,0-0.3,0-0.4,0c-0.2,0-0.5,0-0.7,0c-0.1,0-0.2,0-0.4,0c-0.2,0-0.5,0-0.7,0
				c-0.1,0-0.2,0-0.3,0c-0.2,0-0.5,0-0.7,0c-0.1,0-0.2,0-0.4,0c-0.3,0-0.5,0-0.8,0.1c0,0-0.1,0-0.1,0l-30.3,3.4l5.2-26.4
				c0.2-0.9,0.3-1.9,0.4-2.9c0.1-1.6,0-3.2-0.2-4.7c0,0,0-0.1,0-0.1c-0.1-0.3-0.1-0.6-0.2-0.9c0-0.2-0.1-0.5-0.2-0.7
				c0-0.1,0-0.2-0.1-0.3c-2.2-8.4-9.2-14.5-17.6-15.7l165.5-165.3l66.6,66.6L209.3,369.4C208.2,361.5,202.8,354.8,195.2,352.2z
				 M137.5,441.1l-87.4,20.8l20.8-87.4l24.2-24.2l18.1-2l-6.1,31.3c-0.1,0.5-0.2,1-0.3,1.4c0,0,0,0,0,0c0,0.3-0.1,0.7-0.1,1
				c0,0.1,0,0.1,0,0.2c0,0.3,0,0.5-0.1,0.8c0,0.1,0,0.3,0,0.4c0,0.2,0,0.4,0,0.6c0,0.2,0,0.4,0,0.6c0,0.1,0,0.3,0,0.4
				c0,0.3,0,0.5,0.1,0.8c0,0.1,0,0.1,0,0.2c0,0.3,0.1,0.7,0.1,1c0,0,0,0,0,0c0.2,1.1,0.4,2.1,0.7,3.1c0,0,0,0.1,0,0.1
				c0.1,0.2,0.2,0.5,0.2,0.7c0,0.1,0.1,0.2,0.1,0.3c0.1,0.1,0.1,0.3,0.2,0.4c1.1,2.7,2.6,5.2,4.6,7.2c0.1,0.1,0.1,0.1,0.2,0.2
				c0.1,0.1,0.1,0.1,0.2,0.2c2,2,4.5,3.6,7.2,4.6c0.1,0.1,0.3,0.1,0.4,0.2c0.1,0,0.2,0.1,0.3,0.1c0.2,0.1,0.5,0.2,0.7,0.2
				c0,0,0.1,0,0.1,0c1,0.3,2,0.5,3.1,0.7c0,0,0,0,0,0c0.3,0,0.7,0.1,1,0.1c0.1,0,0.1,0,0.2,0c0.3,0,0.5,0,0.8,0.1c0.1,0,0.3,0,0.4,0
				c0.2,0,0.4,0,0.6,0c0.2,0,0.4,0,0.6,0c0.1,0,0.3,0,0.4,0c0.3,0,0.5,0,0.8-0.1c0.1,0,0.1,0,0.2,0c0.3,0,0.7-0.1,1-0.1c0,0,0,0,0,0
				c0.5-0.1,1-0.2,1.4-0.3l31.3-6.1l-2,18.2L137.5,441.1z M405.1,173.9l-66.6-66.6l35.6-35.6l66.6,66.6L405.1,173.9z"/>
			<path class="st0" d="M313.8,198.3c-8.3-8.3-21.8-8.3-30.2,0l-85.3,85.3c-8.3,8.3-8.3,21.8,0,30.2c8.3,8.3,21.8,8.3,30.2,0
				l85.3-85.3C322.1,220.1,322.1,206.6,313.8,198.3z"/>
		</g>
	</g>
</g>
</svg>
