<?xml version="1.0" encoding="utf-8"?>
<!-- Generator: Adobe Illustrator 22.0.0, SVG Export Plug-In . SVG Version: 6.00 Build 0)  -->
<svg version="1.1" id="Layer_1" xmlns="http://www.w3.org/2000/svg" xmlns:xlink="http://www.w3.org/1999/xlink" x="0px" y="0px"
	 viewBox="0 0 512 512" style="enable-background:new 0 0 512 512;" xml:space="preserve">
<style type="text/css">
	.st0{fill:#E0A020;}
</style>
<g>
	<g>
		<path class="st0" d="M437.4,45.6c-5.6-3.3-15.2-7.8-28.1-12.2c-51-17.5-107.5-17.5-163.2,11.8c-44.1,23.1-88.7,23.1-129.6,9.2
			c-3.7-1.3-7-2.5-9.9-3.7V21.3C106.7,9.6,97.1,0,85.3,0S64,9.6,64,21.3V64v213.7v212.9c0,11.8,9.6,21.3,21.3,21.3
			s21.3-9.6,21.3-21.3v-181c50,16.1,105,15.4,159.2-13.1c44.1-23.1,88.7-23.1,129.6-9.2c10.1,3.4,17.1,6.8,20.5,8.7
			c14.2,8.3,32.1-2,32.1-18.4V64C448,56.4,444,49.4,437.4,45.6z M405.3,245.8c-50-16.1-105-15.4-159.2,13.1
			C202,282,157.4,282,116.5,268c-3.7-1.3-7-2.5-9.9-3.7V96c50,16.1,105,15.4,159.2-13.1c44.1-23.1,88.7-23.1,129.6-9.2
			c3.7,1.3,7,2.5,9.9,3.7L405.3,245.8L405.3,245.8z"/>
	</g>
</g>
</svg>
