<?xml version="1.0" encoding="iso-8859-1"?>
<!-- Generator: Adobe Illustrator 19.0.0, SVG Export Plug-In . SVG Version: 6.00 Build 0)  -->
<svg version="1.1" id="Layer_1" xmlns="http://www.w3.org/2000/svg" xmlns:xlink="http://www.w3.org/1999/xlink" x="0px" y="0px"
	 viewBox="0 0 512.007 512.007" style="enable-background:new 0 0 512.007 512.007;" xml:space="preserve">
<g>
	<g>
		<g>
			<path d="M405.13,213.34H106.463c-11.782,0-21.333,9.551-21.333,21.333v256c0,11.782,9.551,21.333,21.333,21.333H405.13
				c11.782,0,21.333-9.551,21.333-21.333v-256C426.463,222.892,416.912,213.34,405.13,213.34z M383.796,469.34h-256V256.007h256
				V469.34z"/>
			<path d="M412.048,83.498l-42.454-4.331C373.171,44,347.584,12.612,312.43,8.998l-84.902-8.663
				c-35.168-3.584-66.586,22.014-70.172,57.178L114.9,53.182c-35.163-3.583-66.566,22.01-70.151,57.16l-2.175,21.216
				c-1.202,11.724,7.331,22.202,19.056,23.399l382.016,38.997c11.718,1.196,22.187-7.33,23.389-19.047l2.176-21.227
				C472.795,118.508,447.206,87.113,412.048,83.498z M223.199,42.781l84.883,8.661c11.724,1.206,20.257,11.673,19.065,23.394
				L199.802,61.844C201.004,50.116,211.477,41.587,223.199,42.781z M426.765,149.341l-339.57-34.663
				c1.198-11.718,11.66-20.243,23.377-19.049l63.402,6.469c0.088,0.01,0.175,0.025,0.263,0.034l169.792,17.323
				c0.085,0.009,0.169,0.012,0.253,0.019l63.418,6.47C419.426,127.148,427.96,137.619,426.765,149.341z"/>
		</g>
	</g>
</g>
<g>
</g>
<g>
</g>
<g>
</g>
<g>
</g>
<g>
</g>
<g>
</g>
<g>
</g>
<g>
</g>
<g>
</g>
<g>
</g>
<g>
</g>
<g>
</g>
<g>
</g>
<g>
</g>
<g>
</g>
</svg>
