<?xml version="1.0" encoding="utf-8"?>
<!-- Generator: Adobe Illustrator 22.0.0, SVG Export Plug-In . SVG Version: 6.00 Build 0)  -->
<svg version="1.1" id="Layer_1" xmlns="http://www.w3.org/2000/svg" xmlns:xlink="http://www.w3.org/1999/xlink" x="0px" y="0px"
	 viewBox="0 0 512 512" style="enable-background:new 0 0 512 512;" xml:space="preserve">
<style type="text/css">
	.st0{fill:#D62D2D;}
</style>
<g>
	<g>
		<g>
			<path class="st0" d="M405.1,213.3H106.5c-11.8,0-21.3,9.6-21.3,21.3v256c0,11.8,9.6,21.3,21.3,21.3h298.7
				c11.8,0,21.3-9.6,21.3-21.3v-256C426.5,222.9,416.9,213.3,405.1,213.3z M383.8,469.3h-256V256h256V469.3z"/>
			<path class="st0" d="M412,83.5l-42.5-4.3c3.6-35.2-22-66.6-57.2-70.2l-84.9-8.7c-35.2-3.6-66.6,22-70.2,57.2l-42.5-4.3
				c-35.2-3.6-66.6,22-70.2,57.2l-2.2,21.2c-1.2,11.7,7.3,22.2,19.1,23.4l382,39c11.7,1.2,22.2-7.3,23.4-19l2.2-21.2
				C472.8,118.5,447.2,87.1,412,83.5z M223.2,42.8l84.9,8.7c11.7,1.2,20.3,11.7,19.1,23.4l-127.3-13C201,50.1,211.5,41.6,223.2,42.8
				z M426.8,149.3L87.2,114.7c1.2-11.7,11.7-20.2,23.4-19l63.4,6.5c0.1,0,0.2,0,0.3,0L344,119.5c0.1,0,0.2,0,0.3,0l63.4,6.5
				C419.4,127.1,428,137.6,426.8,149.3z"/>
		</g>
	</g>
</g>
</svg>
