<?xml version="1.0" encoding="UTF-8" standalone="no"?>
<!DOCTYPE svg PUBLIC "-//W3C//DTD SVG 1.1//EN" "http://www.w3.org/Graphics/SVG/1.1/DTD/svg11.dtd">
<svg width="100%" height="100%" viewBox="0 0 513 513" version="1.1" xmlns="http://www.w3.org/2000/svg" xmlns:xlink="http://www.w3.org/1999/xlink" xml:space="preserve" xmlns:serif="http://www.serif.com/" style="fill-rule:evenodd;clip-rule:evenodd;stroke-linejoin:round;stroke-miterlimit:2;">
    <g transform="matrix(-1,0,0,1,513.028,-1)">
        <g>
            <g>
                <g transform="matrix(-1,0,0,1,812.702,0)">
                    <path d="M531.184,249.202C531.387,248.955 531.563,248.695 531.752,248.442C531.979,248.138 532.215,247.841 532.426,247.525C532.629,247.222 532.805,246.907 532.991,246.595C533.162,246.309 533.341,246.03 533.499,245.735C533.669,245.417 533.813,245.09 533.966,244.766C534.111,244.459 534.264,244.157 534.394,243.843C534.524,243.528 534.629,243.207 534.744,242.887C534.865,242.55 534.994,242.217 535.099,241.872C535.196,241.552 535.267,241.227 535.348,240.904C535.437,240.553 535.535,240.206 535.606,239.848C535.68,239.473 535.724,239.095 535.778,238.718C535.822,238.407 535.882,238.1 535.913,237.785C536.051,236.385 536.051,234.974 535.913,233.574C535.882,233.259 535.823,232.953 535.778,232.642C535.724,232.264 535.68,231.886 535.605,231.512C535.534,231.154 535.436,230.808 535.347,230.457C535.266,230.133 535.195,229.808 535.098,229.488C534.994,229.144 534.865,228.811 534.744,228.475C534.629,228.155 534.524,227.833 534.394,227.518C534.264,227.204 534.111,226.902 533.966,226.596C533.813,226.271 533.669,225.944 533.499,225.626C533.342,225.332 533.162,225.053 532.992,224.767C532.806,224.455 532.63,224.14 532.427,223.836C532.216,223.521 531.981,223.224 531.754,222.921C531.564,222.667 531.387,222.406 531.184,222.159C530.741,221.62 530.275,221.101 529.782,220.608C529.778,220.604 529.775,220.6 529.771,220.596L465.771,156.596C457.44,148.265 443.932,148.265 435.601,156.596C427.27,164.927 427.27,178.435 435.601,186.766L463.183,214.348L321.019,214.348C309.237,214.348 299.686,223.899 299.686,235.681C299.686,247.463 309.237,257.014 321.019,257.014L463.182,257.014L435.6,284.596C427.269,292.927 427.269,306.435 435.6,314.766C443.931,323.097 457.439,323.097 465.77,314.766L529.77,250.766C529.774,250.762 529.777,250.758 529.781,250.754C530.275,250.26 530.741,249.742 531.184,249.202Z" style="fill-rule:nonzero;"/>
                </g>
                <path d="M363.686,333.672C351.904,333.672 342.353,343.223 342.353,355.005L342.353,427.672L257.02,427.672L257.02,86.339C257.02,76.918 250.84,68.612 241.817,65.905L167.707,43.672L342.354,43.672L342.354,117.339C342.354,129.121 351.905,138.672 363.687,138.672C375.469,138.672 385.02,129.121 385.02,117.339L385.02,22.339C385.02,10.557 375.469,1.006 363.687,1.006L22.347,1.006C21.716,1.005 21.091,1.035 20.471,1.089C10.685,1.827 4.306,8.264 1.988,15.949C1.839,16.427 1.709,16.915 1.593,17.409C1.581,17.462 1.571,17.516 1.559,17.57C1.444,18.078 1.348,18.594 1.269,19.117C1.258,19.191 1.246,19.264 1.235,19.338C1.168,19.815 1.115,20.298 1.08,20.787C1.018,21.575 0.999,22.365 1.019,23.155L1.019,449.014C1.019,459.183 8.197,467.939 18.169,469.933L231.502,512.6C244.703,515.24 257.019,505.143 257.019,491.681L257.019,470.339L363.686,470.339C375.468,470.339 385.019,460.788 385.019,449.006L385.019,355.006C385.019,343.223 375.468,333.672 363.686,333.672ZM214.353,465.658L43.686,431.525L43.686,51.02L214.353,102.22L214.353,465.658Z" style="fill-rule:nonzero;"/>
            </g>
        </g>
    </g>
</svg>
