<?xml version="1.0" encoding="UTF-8" standalone="no"?>
<!DOCTYPE svg PUBLIC "-//W3C//DTD SVG 1.1//EN" "http://www.w3.org/Graphics/SVG/1.1/DTD/svg11.dtd">
<svg width="100%" height="100%" viewBox="0 0 760 512" version="1.1" xmlns="http://www.w3.org/2000/svg" xmlns:xlink="http://www.w3.org/1999/xlink" xml:space="preserve" xmlns:serif="http://www.serif.com/" style="fill-rule:evenodd;clip-rule:evenodd;stroke-linejoin:round;stroke-miterlimit:2;">
    <rect id="Монтажная-область1" serif:id="Монтажная область1" x="0" y="0" width="759.838" height="511.989" style="fill:none;"/>
    <clipPath id="_clip1">
        <rect id="Монтажная-область11" serif:id="Монтажная область1" x="0" y="0" width="759.838" height="511.989"/>
    </clipPath>
    <g clip-path="url(#_clip1)">
        <path d="M418.406,342.014L414.691,340.81L341.328,324.273L341.328,286.894C368.147,262.887 383.995,228.786 383.995,192L383.995,117.781C383.995,52.73 331.265,0 266.213,0L245.776,0C180.725,0 127.995,52.73 127.995,117.781L127.995,192C127.995,228.786 143.842,262.887 170.662,286.894L170.662,324.273L97.298,340.81L93.583,342.014C62.7,355.254 42.661,385.643 42.661,419.243L42.661,463.232C42.661,472.992 49.284,481.507 58.744,483.909L94.029,492.869C200.039,518.353 311.177,518.347 417.66,492.943L453.245,483.909C462.705,481.507 469.328,472.992 469.328,463.232L469.328,419.243C469.328,385.643 449.289,355.254 418.406,342.014ZM426.661,446.639L407.458,451.515C307.796,475.29 203.467,475.295 104.265,451.45L85.327,446.64L85.327,419.243C85.327,403.299 94.506,388.812 108.792,381.957L196.685,362.145C206.416,359.952 213.327,351.308 213.327,341.334L213.327,276.843C213.327,270.152 210.188,263.849 204.848,259.817C183.427,243.645 170.661,218.898 170.661,192L170.661,117.781C170.661,76.294 204.288,42.666 245.776,42.666L266.213,42.666C307.7,42.666 341.328,76.293 341.328,117.781L341.328,192C341.328,218.898 328.561,243.645 307.141,259.817C301.801,263.849 298.662,270.152 298.662,276.843L298.662,341.334C298.662,351.309 305.574,359.952 315.304,362.145L403.197,381.957C417.483,388.812 426.662,403.299 426.662,419.243L426.662,446.639L426.661,446.639Z" style="fill-rule:nonzero;"/>
        <g transform="matrix(520.355,0,0,520.355,440.363,439.313)">
            <path d="M0.292,-0.116C0.269,-0.116 0.25,-0.134 0.25,-0.157L0.25,-0.312L0.097,-0.312C0.086,-0.312 0.075,-0.316 0.068,-0.324C0.06,-0.332 0.056,-0.342 0.056,-0.353L0.056,-0.353C0.056,-0.364 0.06,-0.374 0.068,-0.382C0.075,-0.39 0.086,-0.394 0.097,-0.394L0.25,-0.394L0.25,-0.547C0.25,-0.57 0.269,-0.589 0.292,-0.589L0.292,-0.589C0.315,-0.589 0.333,-0.57 0.333,-0.547L0.333,-0.394L0.487,-0.394C0.498,-0.394 0.509,-0.39 0.516,-0.382C0.524,-0.374 0.528,-0.364 0.528,-0.353L0.528,-0.353C0.528,-0.342 0.524,-0.332 0.516,-0.324C0.509,-0.316 0.498,-0.312 0.487,-0.312L0.333,-0.312L0.333,-0.157C0.333,-0.134 0.315,-0.116 0.292,-0.116L0.292,-0.116Z" style="fill-rule:nonzero;"/>
        </g>
    </g>
</svg>
