<?xml version="1.0" encoding="utf-8"?>
<!-- Generator: Adobe Illustrator 22.0.0, SVG Export Plug-In . SVG Version: 6.00 Build 0)  -->
<svg version="1.1" xmlns="http://www.w3.org/2000/svg" xmlns:xlink="http://www.w3.org/1999/xlink" x="0px" y="0px"
	 viewBox="0 0 100 100" style="enable-background:new 0 0 100 100;" xml:space="preserve">
<style type="text/css">
	.st0{fill:#4CAE50;}
</style>
<g id="Слой_1">
</g>
<g id="Слой_2">
	<path class="st0" d="M50,3C24,3,3,24,3,50s21,47,47,47s47-21,47-47S76,3,50,3z M77.7,37.6L50.9,64.4l-6.1,6.1c-1.1,1.1-2.9,1.1-4,0
		L22.3,51.9c-1.1-1.1-1.1-2.9,0-4l4.1-4.1c1.1-1.1,2.9-1.1,4,0l12.5,12.5l26.7-26.7c1.1-1.1,2.9-1.1,4,0l4.1,4.1
		C78.8,34.7,78.8,36.5,77.7,37.6z"/>
</g>
</svg>
