<?xml version="1.0" encoding="utf-8"?>
<!-- Generator: Adobe Illustrator 22.0.0, SVG Export Plug-In . SVG Version: 6.00 Build 0)  -->
<svg version="1.1" xmlns="http://www.w3.org/2000/svg" xmlns:xlink="http://www.w3.org/1999/xlink" x="0px" y="0px"
	 viewBox="0 0 100 100" style="enable-background:new 0 0 100 100;" xml:space="preserve">
<style type="text/css">
	.st0{fill:#4DADAA;}
</style>
<g id="Слой_1">
</g>
<g id="Слой_2">
	<path class="st0" d="M94,52.9l3-2.9l-3-2.9l2.6-3.3l-3.4-2.5l2.2-3.6l-3.7-2l1.7-3.8l-3.9-1.5l1.2-4l-4.1-1l0.7-4.1l-4.2-0.4
		l0.1-4.2l-4.2,0.1l-0.4-4.2l-4.1,0.7l-1-4.1l-4,1.2L68,6.6l-3.8,1.7l-2-3.7l-3.6,2.2l-2.5-3.4L52.9,6L50,3l-2.9,3l-3.3-2.6
		l-2.5,3.4l-3.6-2.2l-2,3.7L32,6.6l-1.5,3.9l-4-1.2l-1,4.1l-4.1-0.7l-0.4,4.2l-4.2-0.1l0.1,4.2l-4.2,0.4l0.7,4.1l-4.1,1l1.2,4
		L6.6,32l1.7,3.8l-3.7,2l2.2,3.6l-3.4,2.5L6,47.1L3,50l3,2.9l-2.6,3.3l3.4,2.5l-2.2,3.6l3.7,2L6.6,68l3.9,1.5l-1.2,4l4.1,1l-0.7,4.1
		l4.2,0.4l-0.1,4.2l4.2-0.1l0.4,4.2l4.1-0.7l1,4.1l4-1.2l1.5,3.9l3.8-1.7l2,3.7l3.6-2.2l2.5,3.4l3.3-2.6l2.9,3l2.9-3l3.3,2.6
		l2.5-3.4l3.6,2.2l2-3.7l3.8,1.7l1.5-3.9l4,1.2l1-4.1l4.1,0.7l0.4-4.2l4.2,0.1l-0.1-4.2l4.2-0.4l-0.7-4.1l4.1-1l-1.2-4l3.9-1.5
		l-1.7-3.8l3.7-2l-2.2-3.6l3.4-2.5L94,52.9z M77.7,37.6L50.9,64.4l-6.1,6.1c-1.1,1.1-2.9,1.1-4,0L22.3,51.9c-1.1-1.1-1.1-2.9,0-4
		l4.1-4.1c1.1-1.1,2.9-1.1,4,0l12.5,12.5l26.7-26.7c1.1-1.1,2.9-1.1,4,0l4.1,4.1C78.8,34.7,78.8,36.5,77.7,37.6z"/>
</g>
</svg>
