<?xml version="1.0" encoding="utf-8"?>
<!-- Generator: Adobe Illustrator 22.0.0, SVG Export Plug-In . SVG Version: 6.00 Build 0)  -->
<svg version="1.1" xmlns="http://www.w3.org/2000/svg" xmlns:xlink="http://www.w3.org/1999/xlink" x="0px" y="0px"
	 viewBox="0 0 100 100" style="enable-background:new 0 0 100 100;" xml:space="preserve">
<style type="text/css">
	.st0{fill:#61C1C1;}
</style>
<g id="Слой_1">
</g>
<g id="Слой_2">
	<path class="st0" d="M84.6,56.9L97,50l-12.4-6.9L93.4,32l-14.1-1.6l3.9-13.7l-13.7,3.9L68,6.6l-11.1,8.8L50,3l-6.9,12.4L32,6.6
		l-1.6,14.1l-13.7-3.9l3.9,13.7L6.6,32l8.8,11.1L3,50l12.4,6.9L6.6,68l14.1,1.6l-3.9,13.7l13.7-3.9L32,93.4l11.1-8.8L50,97l6.9-12.4
		L68,93.4l1.6-14.1l13.7,3.9l-3.9-13.7L93.4,68L84.6,56.9z M77.7,37.6L50.9,64.4l-6.1,6.1c-1.1,1.1-2.9,1.1-4,0L22.3,51.9
		c-1.1-1.1-1.1-2.9,0-4l4.1-4.1c1.1-1.1,2.9-1.1,4,0l12.5,12.5l26.7-26.7c1.1-1.1,2.9-1.1,4,0l4.1,4.1
		C78.8,34.7,78.8,36.5,77.7,37.6z"/>
</g>
</svg>
