<svg height="426pt" viewBox="-42 0 426 426.66667" width="426pt" xmlns="http://www.w3.org/2000/svg"><path d="m59 426.667969c-8.832031 0-16-7.167969-16-16v-394.667969c0-8.832031 7.167969-16 16-16s16 7.167969 16 16v394.667969c0 8.832031-7.167969 16-16 16zm0 0"/><path d="m211.105469 218.667969h-146.773438c-8.832031 0-16-7.167969-16-16s7.167969-16 16-16h146.773438c42.582031 0 77.226562-34.648438 77.226562-77.226563 0-42.796875-34.644531-77.441406-77.226562-77.441406h-194.773438c-8.832031 0-16-7.167969-16-16s7.167969-16 16-16h194.773438c60.226562 0 109.226562 49.003906 109.226562 109.226562 0 60.4375-49 109.441407-109.226562 109.441407zm0 0"/><path d="m221.773438 426.667969h-205.441407c-8.832031 0-16-7.167969-16-16s7.167969-16 16-16h205.441407c48.46875 0 87.894531-39.445313 87.894531-87.894531 0-48.660157-39.425781-88.105469-87.894531-88.105469h-157.441407c-8.832031 0-16-7.167969-16-16s7.167969-16 16-16h157.441407c66.113281 0 119.894531 53.78125 119.894531 119.890625 0 66.328125-53.78125 120.109375-119.894531 120.109375zm0 0"/></svg>