<svg height="512pt" viewBox="0 -43 512 512" width="512pt" xmlns="http://www.w3.org/2000/svg"><path d="m202.667969 426.675781c-1.367188 0-2.773438-.167969-4.160157-.554687-8.535156-2.28125-13.589843-11.09375-11.265624-19.605469l106.667968-394.664063c2.28125-8.511718 11.070313-13.65625 19.605469-11.265624 8.53125 2.28125 13.589844 11.09375 11.261719 19.605468l-106.664063 394.667969c-1.921875 7.125-8.386719 11.816406-15.445312 11.816406zm0 0"/><path d="m154.667969 362.675781c-4.011719 0-7.980469-1.472656-11.09375-4.457031l-138.667969-133.332031c-3.136719-3.03125-4.90625-7.191407-4.90625-11.542969s1.769531-8.511719 4.90625-11.542969l138.667969-133.332031c6.378906-6.101562 16.511719-5.929688 22.632812.449219 6.125 6.355469 5.910157 16.511719-.445312 22.632812l-126.679688 121.792969 126.679688 121.792969c6.375 6.121093 6.589843 16.277343.445312 22.632812-3.136719 3.265625-7.335937 4.90625-11.539062 4.90625zm0 0"/><path d="m357.332031 362.675781c-4.203125 0-8.402343-1.640625-11.539062-4.90625-6.125-6.355469-5.910157-16.488281.445312-22.632812l126.679688-121.792969-126.679688-121.792969c-6.375-6.121093-6.589843-16.277343-.445312-22.632812 6.121093-6.402344 16.253906-6.59375 22.632812-.449219l138.667969 133.332031c3.136719 3.03125 4.90625 7.191407 4.90625 11.542969s-1.769531 8.511719-4.90625 11.542969l-138.667969 133.332031c-3.113281 2.984375-7.082031 4.457031-11.09375 4.457031zm0 0"/></svg>