<svg height="447pt" viewBox="0 -1 447.952 447" width="447pt" xmlns="http://www.w3.org/2000/svg"><path d="m431.953125 445.25h-394.667969c-8.832031 0-16-7.167969-16-16s7.167969-16 16-16h394.667969c8.832031 0 16 7.167969 16 16s-7.167969 16-16 16zm0 0"/><path d="m174.457031 381.226562c-14.695312 0-29.394531-5.589843-40.574219-16.789062l-117.097656-117.097656c-22.378906-22.378906-22.378906-58.792969 0-81.171875l161.023438-161.003907c6.25-6.25 16.382812-6.25 22.632812 0l175.636719 175.636719c3.011719 3.007813 4.695313 7.082031 4.695313 11.308594 0 4.222656-1.683594 8.320313-4.695313 11.304687l-161.023437 161.003907c-11.199219 11.199219-25.917969 16.808593-40.597657 16.808593zm14.636719-342.140624-149.695312 149.714843c-4.800782 4.800781-7.445313 11.15625-7.445313 17.941407 0 6.785156 2.644531 13.164062 7.445313 17.964843l117.097656 117.097657c9.578125 9.578124 26.324218 9.578124 35.925781 0l149.714844-149.695313zm0 0"/><path d="m394.617188 381.25c-29.417969 0-53.332032-24.726562-53.332032-55.105469 0-24.488281 30.613282-72.808593 39.980469-87.019531 5.90625-9 20.796875-9 26.707031 0 9.367188 14.210938 39.980469 62.53125 39.980469 87.019531 0 30.378907-23.914063 55.105469-53.335937 55.105469zm0-102.871094c-11.730469 20.269532-21.332032 40.429688-21.332032 47.765625 0 12.757813 9.558594 23.105469 21.332032 23.105469 11.777343 0 21.335937-10.367188 21.335937-23.105469 0-7.359375-9.601563-27.519531-21.335937-47.765625zm0 0"/><path d="m351.523438 221.25h-335.359376c-8.832031 0-16-7.167969-16-16s7.167969-16 16-16h335.359376c8.832031 0 16 7.167969 16 16s-7.144532 16-16 16zm0 0"/></svg>