<svg height="426pt" viewBox="-106 0 426 426.70233" width="426pt" xmlns="http://www.w3.org/2000/svg"><path d="m91.019531 426.703125h-74.667969c-8.832031 0-16-7.167969-16-16s7.167969-16 16-16h74.667969c8.832031 0 16 7.167969 16 16s-7.167969 16-16 16zm0 0"/><path d="m197.683594 32.035156h-74.664063c-8.832031 0-16-7.167968-16-16 0-8.832031 7.167969-15.9999998 16-15.9999998h74.664063c8.832031 0 16 7.1679688 16 15.9999998 0 8.832032-7.167969 16-16 16zm0 0"/><path d="m53.683594 426.703125c-1.386719 0-2.792969-.171875-4.179688-.554687-8.535156-2.285157-13.570312-11.09375-11.265625-19.605469l106.667969-394.667969c2.304688-8.554688 11.09375-13.714844 19.625-11.261719 8.535156 2.28125 13.570312 11.089844 11.265625 19.605469l-106.667969 394.664062c-1.917968 7.125-8.382812 11.820313-15.445312 11.820313zm0 0"/></svg>