<svg height="512pt" viewBox="0 -32 512 512" width="512pt" xmlns="http://www.w3.org/2000/svg"><path d="m53.332031 106.667969c-29.417969 0-53.332031-23.914063-53.332031-53.335938 0-29.417969 23.914062-53.332031 53.332031-53.332031 29.421875 0 53.335938 23.914062 53.335938 53.332031 0 29.421875-23.914063 53.335938-53.335938 53.335938zm0-74.667969c-11.773437 0-21.332031 9.558594-21.332031 21.332031 0 11.777344 9.558594 21.335938 21.332031 21.335938 11.777344 0 21.335938-9.558594 21.335938-21.335938 0-11.773437-9.558594-21.332031-21.335938-21.332031zm0 0"/><path d="m53.332031 277.332031c-29.417969 0-53.332031-23.914062-53.332031-53.332031s23.914062-53.332031 53.332031-53.332031c29.421875 0 53.335938 23.914062 53.335938 53.332031s-23.914063 53.332031-53.335938 53.332031zm0-74.664062c-11.773437 0-21.332031 9.554687-21.332031 21.332031s9.558594 21.332031 21.332031 21.332031c11.777344 0 21.335938-9.554687 21.335938-21.332031s-9.558594-21.332031-21.335938-21.332031zm0 0"/><path d="m53.332031 448c-29.417969 0-53.332031-23.914062-53.332031-53.332031 0-29.421875 23.914062-53.335938 53.332031-53.335938 29.421875 0 53.335938 23.914063 53.335938 53.335938 0 29.417969-23.914063 53.332031-53.335938 53.332031zm0-74.667969c-11.773437 0-21.332031 9.558594-21.332031 21.335938 0 11.773437 9.558594 21.332031 21.332031 21.332031 11.777344 0 21.335938-9.558594 21.335938-21.332031 0-11.777344-9.558594-21.335938-21.335938-21.335938zm0 0"/><path d="m496 69.332031h-330.667969c-8.832031 0-16-7.167969-16-16s7.167969-16 16-16h330.667969c8.832031 0 16 7.167969 16 16s-7.167969 16-16 16zm0 0"/><path d="m496 240h-330.667969c-8.832031 0-16-7.167969-16-16s7.167969-16 16-16h330.667969c8.832031 0 16 7.167969 16 16s-7.167969 16-16 16zm0 0"/><path d="m496 410.667969h-330.667969c-8.832031 0-16-7.167969-16-16s7.167969-16 16-16h330.667969c8.832031 0 16 7.167969 16 16s-7.167969 16-16 16zm0 0"/></svg>