<?xml version="1.0" encoding="utf-8"?>
<!-- Generator: Adobe Illustrator 22.0.0, SVG Export Plug-In . SVG Version: 6.00 Build 0)  -->
<svg version="1.1" id="Слой_1" xmlns="http://www.w3.org/2000/svg" xmlns:xlink="http://www.w3.org/1999/xlink" x="0px" y="0px"
	 viewBox="0 0 512 512" style="enable-background:new 0 0 512 512;" xml:space="preserve">
<path d="M53.3,309.3C23.9,309.3,0,285.4,0,256s23.9-53.3,53.3-53.3c29.4,0,53.3,23.9,53.3,53.3S82.8,309.3,53.3,309.3z M53.3,234.7
	c-11.8,0-21.3,9.6-21.3,21.3s9.6,21.3,21.3,21.3c11.8,0,21.3-9.6,21.3-21.3S65.1,234.7,53.3,234.7z"/>
<path d="M496,272H165.3c-8.8,0-16-7.2-16-16s7.2-16,16-16H496c8.8,0,16,7.2,16,16S504.8,272,496,272z"/>
</svg>
