<svg height="426pt" viewBox="0 -42 426.66667 426" width="426pt" xmlns="http://www.w3.org/2000/svg"><path d="m368 171h-53.332031c-32.363281 0-58.667969-26.304688-58.667969-58.667969v-53.332031c0-32.363281 26.304688-58.667969 58.667969-58.667969h53.332031c32.363281 0 58.667969 26.304688 58.667969 58.667969v53.332031c0 32.363281-26.304688 58.667969-58.667969 58.667969zm-53.332031-138.667969c-14.699219 0-26.667969 11.96875-26.667969 26.667969v53.332031c0 14.699219 11.96875 26.667969 26.667969 26.667969h53.332031c14.699219 0 26.667969-11.96875 26.667969-26.667969v-53.332031c0-14.699219-11.96875-26.667969-26.667969-26.667969zm0 0"/><path d="m304 341.667969h-32c-8.832031 0-16-7.167969-16-16s7.167969-16 16-16h32c50.003906 0 90.667969-40.683594 90.667969-90.667969v-106.667969c0-8.832031 7.167969-16 16-16s16 7.167969 16 16v106.667969c0 67.625-55.019531 122.667969-122.667969 122.667969zm0 0"/><path d="m112 171h-53.332031c-32.363281 0-58.667969-26.304688-58.667969-58.667969v-53.332031c0-32.363281 26.304688-58.667969 58.667969-58.667969h53.332031c32.363281 0 58.667969 26.304688 58.667969 58.667969v53.332031c0 32.363281-26.304688 58.667969-58.667969 58.667969zm-53.332031-138.667969c-14.699219 0-26.667969 11.96875-26.667969 26.667969v53.332031c0 14.699219 11.96875 26.667969 26.667969 26.667969h53.332031c14.699219 0 26.667969-11.96875 26.667969-26.667969v-53.332031c0-14.699219-11.96875-26.667969-26.667969-26.667969zm0 0"/><path d="m48 341.667969h-32c-8.832031 0-16-7.167969-16-16s7.167969-16 16-16h32c50.003906 0 90.667969-40.683594 90.667969-90.667969v-106.667969c0-8.832031 7.167969-16 16-16s16 7.167969 16 16v106.667969c0 67.625-55.019531 122.667969-122.667969 122.667969zm0 0"/></svg>