<svg height="426pt" viewBox="-21 0 426 426.66667" width="426pt" xmlns="http://www.w3.org/2000/svg"><path d="m192.332031 362.667969c-82.34375 0-149.332031-67.007813-149.332031-149.335938v-197.332031c0-8.832031 7.167969-16 16-16s16 7.167969 16 16v197.332031c0 64.683594 52.628906 117.335938 117.332031 117.335938 64.707031 0 117.335938-52.652344 117.335938-117.335938v-197.332031c0-8.832031 7.167969-16 16-16s16 7.167969 16 16v197.332031c0 82.328125-66.988281 149.335938-149.335938 149.335938zm0 0"/><path d="m101.667969 32h-85.335938c-8.832031 0-16-7.167969-16-16s7.167969-16 16-16h85.335938c8.832031 0 16 7.167969 16 16s-7.167969 16-16 16zm0 0"/><path d="m368.332031 32h-85.332031c-8.832031 0-16-7.167969-16-16s7.167969-16 16-16h85.332031c8.832031 0 16 7.167969 16 16s-7.167969 16-16 16zm0 0"/><path d="m347 426.667969h-309.332031c-8.832031 0-16-7.167969-16-16s7.167969-16 16-16h309.332031c8.832031 0 16 7.167969 16 16s-7.167969 16-16 16zm0 0"/></svg>