<svg height="469.33333pt" viewBox="0 0 469.33333 469.33333" width="469.33333pt" xmlns="http://www.w3.org/2000/svg"><path d="m359.828125 302.101562c-4.09375 0-8.191406-1.558593-11.304687-4.695312-6.25-6.25-6.25-16.382812 0-22.632812l56.851562-56.851563c20.628906-20.4375 31.980469-47.746094 31.980469-76.972656 0-60.074219-48.875-108.949219-108.949219-108.949219-29.226562 0-56.535156 11.328125-76.929688 31.914062l-56.894531 56.898438c-6.25 6.25-16.382812 6.25-22.636719 0-6.25-6.253906-6.25-16.386719 0-22.636719l56.855469-56.851562c26.367188-26.648438 61.78125-41.324219 99.582031-41.324219 77.71875 0 140.949219 63.230469 140.949219 140.949219 0 37.824219-14.699219 73.238281-41.386719 99.667969l-56.808593 56.789062c-3.136719 3.136719-7.210938 4.695312-11.308594 4.695312zm0 0"/><path d="m140.949219 469.332031c-77.71875 0-140.949219-63.230469-140.949219-140.949219 0-37.824218 14.699219-73.234374 41.386719-99.667968l56.8125-56.789063c6.25-6.25 16.382812-6.25 22.632812 0s6.25 16.382813 0 22.632813l-56.851562 56.855468c-20.652344 20.414063-31.980469 47.722657-31.980469 76.96875 0 60.074219 48.875 108.949219 108.949219 108.949219 29.226562 0 56.535156-11.328125 76.929687-31.914062l56.894532-56.894531c6.25-6.25 16.382812-6.25 22.632812 0 6.253906 6.25 6.253906 16.382812 0 22.632812l-56.851562 56.855469c-26.390626 26.644531-61.800782 41.320312-99.605469 41.320312zm0 0"/><path d="m149.332031 336c-4.09375 0-8.191406-1.558594-11.304687-4.691406-6.25-6.253906-6.25-16.386719 0-22.636719l170.664062-170.667969c6.253906-6.25 16.386719-6.25 22.636719 0 6.25 6.253906 6.25 16.386719 0 22.636719l-170.667969 170.667969c-3.136718 3.132812-7.230468 4.691406-11.328125 4.691406zm0 0"/></svg>