<svg xmlns="http://www.w3.org/2000/svg" viewBox="0 0 240 263"><defs><style>.cls-1{fill:#b8c6dd;}.cls-2{fill:#fefefe;}.cls-3{fill:#49507c;}</style></defs><g id="Слой_2" data-name="Слой 2"><g id="Layer_1" data-name="Layer 1"><path class="cls-1" d="M144.21,263H0V0H144.21a2.58,2.58,0,0,0-1.5,2.5c0,1,1.29,1.79,1.29,2.27V12.4l-4.16-4a1.29,1.29,0,0,0-1.84,0l-.16.15a1.33,1.33,0,0,0,0,1.88L144,16.37v5.85l-4.16-4a1.28,1.28,0,0,0-1.84,0l-.16.15a1.33,1.33,0,0,0,0,1.88L144,26.18V41.59a11.63,11.63,0,0,0-4.72,2.65L125.79,36.9l-2.22-8.11a1.32,1.32,0,0,0-1.63-.93l-.2.05a1.34,1.34,0,0,0-.93,1.63l1.5,5.47-5.15-2.79-2.22-8.11a1.33,1.33,0,0,0-1.63-.94l-.2.06a1.33,1.33,0,0,0-.93,1.63l1.5,5.46-6.61-3.58a2.61,2.61,0,0,0-1.4-2.21A2.7,2.7,0,0,0,102,25.61a2.75,2.75,0,0,0,1.08,3.73,2.66,2.66,0,0,0,2.7-.05l6.43,3.49L107,34.45a1.33,1.33,0,0,0-.86,1.68l.06.19a1.33,1.33,0,0,0,1.67.86l7.84-2.51,5.14,2.8-5.22,1.67a1.32,1.32,0,0,0-.86,1.67l.06.19a1.32,1.32,0,0,0,1.67.86l7.84-2.5,13.54,7.34a8.11,8.11,0,0,0-.11,5.23L124.82,59.5l-8.09-2.29a1.33,1.33,0,0,0-1.64.91l-.06.2A1.33,1.33,0,0,0,116,60l5.45,1.55-5.05,3-8.09-2.3a1.33,1.33,0,0,0-1.64.92l-.06.19a1.33,1.33,0,0,0,.92,1.64l5.45,1.55-6.49,3.8a2.59,2.59,0,0,0-2.61,0,2.72,2.72,0,0,0-1,3.72,2.76,2.76,0,0,0,3.75,1A2.68,2.68,0,0,0,108,72.7l6.31-3.7L113,74.34a1.33,1.33,0,0,0,1,1.6l.2,0a1.33,1.33,0,0,0,1.6-1l1.91-8,5-3-1.27,5.34a1.31,1.31,0,0,0,1,1.6l.19,0a1.32,1.32,0,0,0,1.6-1l1.9-8,12.93-7.59C140.28,56,143,57,144,57.35V71.94l-6.14,5.93a1.32,1.32,0,0,0,0,1.87l.14.15a1.29,1.29,0,0,0,1.85,0l4.16-4v5.85l-6.14,5.92a1.34,1.34,0,0,0,0,1.88l.14.15a1.29,1.29,0,0,0,1.85,0l4.16-4v7.62c0,.49-1.28,1.33-1.28,2.28a2.72,2.72,0,0,0,2.72,2.72,2.8,2.8,0,0,0,2.82-2.72c0-1-1.26-1.89-1.26-2.36v-7.2l3.82,3.68a1.32,1.32,0,0,0,1.87,0l.14-.15a1.33,1.33,0,0,0,0-1.88L147,82.1V76.25l3.82,3.68a1.32,1.32,0,0,0,1.87,0l.14-.15a1.32,1.32,0,0,0,0-1.87L147,72.28v-15c3-.4,3.61-1.51,4.76-3l13.18,7.16,2.17,7.94a1.35,1.35,0,0,0,1.64.93l.19,0a1.33,1.33,0,0,0,.93-1.64l-1.44-5.29,5.14,2.79L175.74,74a1.33,1.33,0,0,0,1.63.93l.2,0a1.33,1.33,0,0,0,.93-1.64L177.06,68l6.42,3.49a2.71,2.71,0,0,0,1.44,2.29,2.76,2.76,0,0,0,3.72-1.12A2.71,2.71,0,0,0,187.53,69a2.59,2.59,0,0,0-2.61,0l-6.61-3.58,5.4-1.73a1.33,1.33,0,0,0,.86-1.67l-.06-.19a1.34,1.34,0,0,0-1.67-.87l-8,2.57-5.15-2.8,5.4-1.72a1.33,1.33,0,0,0,.86-1.67l-.06-.2a1.33,1.33,0,0,0-1.67-.86l-8,2.56L153,51.67a8,8,0,0,0,.31-2.2,7.87,7.87,0,0,0-.59-3L166,38.67,174,40.92A1.34,1.34,0,0,0,175.6,40l.05-.19a1.34,1.34,0,0,0-.91-1.65l-5.28-1.49,5-3L182.42,36a1.32,1.32,0,0,0,1.65-.91l.05-.2a1.33,1.33,0,0,0-.91-1.64l-5.28-1.5,6.31-3.7A2.68,2.68,0,0,0,187,28a2.75,2.75,0,0,0,1-3.77,2.72,2.72,0,0,0-3.72-1,2.57,2.57,0,0,0-1.31,2.25l-6.49,3.8,1.31-5.51a1.33,1.33,0,0,0-1-1.6l-.21,0a1.31,1.31,0,0,0-1.59,1l-2,8.18-5,3,1.31-5.51a1.33,1.33,0,0,0-1-1.6l-.2,0a1.33,1.33,0,0,0-1.6,1l-1.95,8.18-13.28,7.79A11.25,11.25,0,0,0,147,41.66V25.84l5.81-5.58a1.34,1.34,0,0,0,0-1.88l-.14-.15a1.32,1.32,0,0,0-1.87,0L147,21.87V16l5.81-5.58a1.34,1.34,0,0,0,0-1.88l-.14-.15a1.33,1.33,0,0,0-1.87,0L147,12.06V4.86c0-.48,1.2-1.35,1.2-2.36A2.89,2.89,0,0,0,146.4,0H240V263H146.4a2.58,2.58,0,0,0-1.08-.23A2.79,2.79,0,0,0,144.21,263Zm2.34-94,2.45,1.39-1.71.42a.91.91,0,0,0-.67,1.1l0,.07a.91.91,0,0,0,1.1.67l3.65-.89,2.05,1.16-4.08,1a.91.91,0,0,0-.67,1.1v.07a.92.92,0,0,0,1.11.67l6-1.47,2.66,1.51-6.39,1.56a.92.92,0,0,0-.67,1.11l0,.07a.91.91,0,0,0,1.1.67l8.34-2,3.41,1.94.1,0a3.17,3.17,0,0,0-.12.88c0,.11,0,.23,0,.35L161,182.3l-8.47-1.91a.9.9,0,0,0-1.09.69l0,.06a.92.92,0,0,0,.69,1.1l6.52,1.47L156,185.28l-6.13-1.39a.92.92,0,0,0-1.1.69v.07a.91.91,0,0,0,.69,1.09l4.18.95-2.08,1.23-3.66-.83a.92.92,0,0,0-1.1.69v.07a.91.91,0,0,0,.69,1.09l1.7.39-2.41,1.43a1.05,1.05,0,1,0,1.07,1.81l2.42-1.43-.48,1.68a.91.91,0,0,0,.63,1.13l.06,0a.91.91,0,0,0,1.13-.62l1-3.62,2-1.2-1.15,4a.91.91,0,0,0,.62,1.13l.07,0a.91.91,0,0,0,1.13-.63l1.71-6,2.63-1.56-1.8,6.33a.92.92,0,0,0,.63,1.13h.09a1,1,0,0,0,1.17-.62l2.42-8.26,3.3-1.86a2.08,2.08,0,0,0,1.51.8v3.53l-6.17,6.26c-.34.37-.57.94-.2,1.29l.12.05a1.08,1.08,0,0,0,1.43,0l4.82-4.8v3.08L162.48,197c-.34.37-.57.95-.2,1.3l.12,0a1.09,1.09,0,0,0,1.43,0l3.17-3.06v2.41l-2.78,2.68c-.34.37-.57.94-.2,1.29l.12.05a1.08,1.08,0,0,0,1.43,0l1.43-1.22v2.8c0,.58-.08,1.81.5,1.81h.05c.59,0,2.45-1.23,2.45-1.81v-2.84l.59,1.26c.34.37.31.39.68,0l.23-.05c.36-.35.73-.92.38-1.29L170,197.59v-2.36l2.27,3.05c.35.36.32.38.68,0l.23,0c.36-.35.73-.93.38-1.29L170,192.47v-3.06l3.9,4.77c.35.37.32.39.68,0l.23-.05c.36-.35.73-.92.38-1.29L170,186.65v-3.53c0-.17.26-.46.63-.83l2.41,1.77,2.51,8.21a.92.92,0,0,0,1.14.61l.06,0a.9.9,0,0,0,.61-1.14l-1.92-6.29,2.6,1.48,1.87,6a.91.91,0,0,0,1.14.6l.07,0a.92.92,0,0,0,.61-1.14l-1.23-4,2.05,1.17,1.09,3.59a.91.91,0,0,0,1.14.61l.07,0a.93.93,0,0,0,.61-1.14l-.51-1.68,2.44,1.39a1.05,1.05,0,1,0,1-1.83L186,189l1.7-.41a.92.92,0,0,0,.67-1.11v-.07a.92.92,0,0,0-1.11-.67l-3.65.9-2.1-1.2,4.16-1a.91.91,0,0,0,.67-1.1v-.07a.92.92,0,0,0-1.11-.67l-6.11,1.5-2.67-1.53,6.49-1.58a.92.92,0,0,0,.67-1.11l0-.07a.91.91,0,0,0-1.1-.67L174,182.19l-3.19-1.82c0-.12,0-.23,0-.35a3.54,3.54,0,0,0-.15-1l3.38-2,8.37,1.89a.9.9,0,0,0,1.09-.69l0-.06a.92.92,0,0,0-.69-1.1l-6.42-1.45,2.63-1.56,6.06,1.37a.91.91,0,0,0,1.09-.69l0-.07a.91.91,0,0,0-.69-1.09l-4.1-.93,2-1.19,3.67.83a.91.91,0,0,0,1.09-.69l0-.07a.93.93,0,0,0-.69-1.1l-1.71-.38,2.42-1.44a1.05,1.05,0,1,0-1.08-1.81l-2.41,1.43.48-1.68a.91.91,0,0,0-.63-1.13l-.07,0a.91.91,0,0,0-1.13.63l-1,3.61-2.08,1.23,1.18-4.12a.91.91,0,0,0-.63-1.13l-.06,0a.93.93,0,0,0-1.13.63L178,172.28l-2.65,1.57,1.84-6.43a.91.91,0,0,0-.62-1.13l-.06,0a.9.9,0,0,0-1.1.63L173,175.26l-3.23,2c-.06,0,.06.08,0,.12-.28-.19-.23-.35-.56-.45,0-.1.75-.21.75-.33v-3.9l5.28-6.23c.35-.37-.28-.94-.65-1.29l.13,0c-.37-.35-.6-.33-.95,0L170,169.9v-3.06l3.65-4.5c.34-.37-.28-1-.65-1.3l.13,0c-.37-.35-.6-.33-.95,0L170,164.08v-2.36l2-2.72c.35-.37-.27-.94-.64-1.29l.12-.05c-.36-.35-.59-.33-.94,0L170,159v-2.84c0-.59-1.86-1.12-2.45-1.12h-.05c-.58,0-.5.53-.5,1.12v2.8l-1.4-1.22a1.22,1.22,0,0,0-1.53,0l0,.05a.91.91,0,0,0,.1,1.29l2.81,2.68v2.41L163.86,161a1.23,1.23,0,0,0-1.53,0v0a.94.94,0,0,0,.11,1.3l4.55,4.52v3.07l-4.79-4.8a1.22,1.22,0,0,0-1.53,0l0,0a.91.91,0,0,0,.1,1.29l6.2,6.26v3.87c0,.13-.26.25-.22.36a5,5,0,0,0-1.21.5.83.83,0,0,0-.21-.16L162,175.35,159.47,167a.93.93,0,0,0-1.14-.61l-.07,0a.9.9,0,0,0-.6,1.14l2,6.39-2.68-1.53-1.83-6a.92.92,0,0,0-1.14-.61l-.07,0a.93.93,0,0,0-.61,1.14l1.25,4.1-2.1-1.2-1.09-3.59a.93.93,0,0,0-1.14-.61l-.07,0a.93.93,0,0,0-.61,1.14l.51,1.68-2.44-1.39a1.05,1.05,0,1,0-1,1.83ZM4.63,64,2.19,65.39a1.05,1.05,0,1,0,1,1.83l2.45-1.39-.52,1.68a.93.93,0,0,0,.61,1.14l.07,0A.91.91,0,0,0,7,68.06l1.09-3.59,2-1.17-1.23,4a.92.92,0,0,0,.61,1.14l.07,0a.91.91,0,0,0,1.14-.6l1.87-6,2.6-1.48-1.92,6.29a.9.9,0,0,0,.61,1.14l.07,0a.91.91,0,0,0,1.13-.61l2.51-8.21,2.6-1.77c.37.37.82.66.82.83v3.53l-5.38,6.23c-.35.37-.08.94.29,1.29l.17,0c.37.35.51.33.85,0L21,64.41v3.06L17.25,72c-.35.36-.08.94.29,1.29l.18,0c.36.35.5.33.85,0l2.43-3v2.36l-2.07,2.72c-.35.37-.07.94.29,1.29l.18.05c.36.35.5.33.85,0L21,75.35v2.84c0,.58,1.48,1.81,2.07,1.81h.06c.58,0,.87-1.23.87-1.81v-2.8l1.24,1.22a1,1,0,0,0,1.34,0l.07-.05a.91.91,0,0,0,0-1.29L24,72.63V70.22l3,3.06a1,1,0,0,0,1.33,0l.07,0a.92.92,0,0,0,0-1.3L24,67.46V64.38l4.63,4.8a1,1,0,0,0,1.34,0l.07,0a.92.92,0,0,0,0-1.29l-6-6.26V58.09a1.62,1.62,0,0,0,1.32-.8l3.2,1.86,2.38,8.26A.93.93,0,0,0,32,68h.08a.92.92,0,0,0,.63-1.13l-1.81-6.33,2.64,1.56,1.7,6a.91.91,0,0,0,1.13.63l.07,0a.92.92,0,0,0,.63-1.13l-1.16-4,2,1.2,1,3.62a.91.91,0,0,0,1.13.62l.07,0a.91.91,0,0,0,.62-1.13l-.48-1.68,2.42,1.43a1.05,1.05,0,0,0,1.08-1.81l-2.42-1.43,1.7-.39a.91.91,0,0,0,.69-1.09v-.07a.91.91,0,0,0-1.09-.69l-3.67.83L37,61.69l4.18-.95a.91.91,0,0,0,.69-1.09v-.07a.92.92,0,0,0-1.1-.69L34.6,60.28,32,58.71l6.52-1.47a.92.92,0,0,0,.69-1.1l0-.06a.9.9,0,0,0-1.09-.69L29.58,57.3l-3.27-1.93c0-.12,0-.24,0-.35a3.17,3.17,0,0,0-.12-.88l.1,0,3.41-1.94,8.34,2a.92.92,0,0,0,1.11-.67v-.07a.92.92,0,0,0-.67-1.11l-6.39-1.56,2.66-1.51,6,1.47a.92.92,0,0,0,1.11-.67V50a.9.9,0,0,0-.66-1.1l-4.09-1,2-1.16,3.65.89A.9.9,0,0,0,44,47l0-.07a.91.91,0,0,0-.67-1.1l-1.7-.42L44.07,44a1.05,1.05,0,1,0-1-1.83l-2.44,1.39.51-1.68a.92.92,0,0,0-.61-1.14l-.07,0a.93.93,0,0,0-1.14.61L38.19,44.9l-2.1,1.2L37.34,42a.92.92,0,0,0-.61-1.14l-.07,0a.92.92,0,0,0-1.14.61l-1.83,6L31,49,33,42.6a.9.9,0,0,0-.6-1.14l-.07,0a.93.93,0,0,0-1.14.61l-2.53,8.31-3.36,1.91a.83.83,0,0,0-.21.16,3.72,3.72,0,0,0-1-.5c0-.11,0-.23,0-.36V47.69l6-6.26a.91.91,0,0,0,0-1.29l0,0a1,1,0,0,0-1.37,0L24,44.93V41.86l4.36-4.52a.92.92,0,0,0,0-1.3l0,0A1,1,0,0,0,27,36l-3,3.06V36.68L26.62,34a.91.91,0,0,0,0-1.29l0-.05a1,1,0,0,0-1.37,0L24,33.92v-2.8c0-.59-.29-1.12-.87-1.12h-.06c-.59,0-2.07.53-2.07,1.12V34l-.69-1.26a.64.64,0,0,0-1,0l.08.05c-.37.35-.83.92-.48,1.29L21,36.72v2.36l-2.37-3a.64.64,0,0,0-1,0l.08,0c-.37.35-.83.93-.48,1.3L21,41.84V44.9l-4-4.77a.64.64,0,0,0-1,0l.07,0c-.36.35-.82.92-.47,1.29L21,47.66v3.9c0,.12.52.23.56.33-.33.1-.38.26-.65.45-.05,0,0-.08,0-.12l-3.26-2L15.26,41.9a.9.9,0,0,0-1.11-.63l-.06,0a.92.92,0,0,0-.62,1.13l1.84,6.43-2.65-1.57-1.73-6.05A.92.92,0,0,0,9.8,40.6l-.06,0a.91.91,0,0,0-.63,1.13l1.18,4.12L8.21,44.64,7.18,41a.91.91,0,0,0-1.13-.63l-.07,0a.92.92,0,0,0-.63,1.13l.48,1.68L3.42,41.8a1.05,1.05,0,1,0-1.08,1.81l2.42,1.44-1.71.38a.93.93,0,0,0-.69,1.1l0,.07a.91.91,0,0,0,1.09.69l3.67-.83,2,1.19-4.1.93a.91.91,0,0,0-.69,1.09l0,.07a.91.91,0,0,0,1.09.69l6.06-1.37,2.63,1.56L7.75,52.07a.91.91,0,0,0-.68,1.1v.06a.9.9,0,0,0,1.09.69L16.55,52l3.38,2a3.21,3.21,0,0,0-.15,1c0,.12,0,.23,0,.35L16.6,57.19,8.16,55.12a.91.91,0,0,0-1.1.67l0,.07A.92.92,0,0,0,7.71,57l6.49,1.58-2.67,1.53-6.11-1.5a.92.92,0,0,0-1.11.67v.07A.91.91,0,0,0,5,60.42l4.16,1L7,62.64l-3.65-.9a.91.91,0,0,0-1.1.67l0,.07a.92.92,0,0,0,.67,1.11ZM78.42,170.78l6.43-3.49a2.66,2.66,0,0,0,2.7.05,2.75,2.75,0,0,0,1.08-3.73A2.69,2.69,0,0,0,85,162.53a2.61,2.61,0,0,0-1.4,2.21l-6.61,3.58,1.5-5.46a1.33,1.33,0,0,0-.93-1.63l-.2-.06a1.33,1.33,0,0,0-1.63.94l-2.22,8.11L68.31,173l1.5-5.47a1.33,1.33,0,0,0-.93-1.63l-.2,0a1.32,1.32,0,0,0-1.63.93l-2.22,8.11-13.3,7.34A11.09,11.09,0,0,0,47,179.59V164.18l6-5.92a1.33,1.33,0,0,0-.08-1.88l-.2-.15a1.09,1.09,0,0,0-1.67,0l-4,4v-5.85l6-5.93a1.33,1.33,0,0,0-.08-1.88l-.2-.15a1.1,1.1,0,0,0-1.67,0l-4,4v-7.63c0-.48,1.1-1.32,1.1-2.27a2.79,2.79,0,0,0-2.8-2.73,2.7,2.7,0,0,0-2.69,2.73c0,1,1.39,1.88,1.39,2.36v7.2l-4-3.69a1.44,1.44,0,0,0-2,0l-.19.15a1.34,1.34,0,0,0,.19,1.88L44,154v5.85l-4-3.68a1.43,1.43,0,0,0-2,0l-.19.15a1.34,1.34,0,0,0,.19,1.88l6,5.58v15.82a12,12,0,0,0-4.4,2.39l-13.38-7.79-2-8.18a1.35,1.35,0,0,0-1.62-1l-.21.05a1.32,1.32,0,0,0-1,1.6l1.31,5.51-5-3-2-8.18a1.32,1.32,0,0,0-1.6-1l-.2,0a1.33,1.33,0,0,0-1,1.6l1.32,5.51-6.49-3.8a2.6,2.6,0,0,0-1.32-2.25,2.72,2.72,0,0,0-3.72.95A2.76,2.76,0,0,0,3.67,166a2.68,2.68,0,0,0,2.71,0l6.31,3.7-5.28,1.5a1.33,1.33,0,0,0-.91,1.64l0,.2A1.32,1.32,0,0,0,8.2,174l7.91-2.24,5.05,3-5.28,1.49a1.34,1.34,0,0,0-.91,1.65l0,.19a1.34,1.34,0,0,0,1.65.92l7.91-2.25,13.31,7.8a7.87,7.87,0,0,0-.59,3,8,8,0,0,0,.31,2.2l-13.19,7.15-8-2.56a1.34,1.34,0,0,0-1.67.86l-.06.2a1.33,1.33,0,0,0,.86,1.67l5.4,1.72-5.15,2.8-8-2.57a1.35,1.35,0,0,0-1.68.87l-.06.19a1.33,1.33,0,0,0,.86,1.67l5.4,1.73L5.7,207a2.59,2.59,0,0,0-2.61,0A2.71,2.71,0,0,0,2,210.63a2.76,2.76,0,0,0,3.72,1.12,2.71,2.71,0,0,0,1.44-2.29L13.57,206l-1.45,5.29a1.33,1.33,0,0,0,.93,1.64l.2,0a1.32,1.32,0,0,0,1.63-.93l2.17-7.94,5.15-2.79-1.45,5.29a1.33,1.33,0,0,0,.93,1.64l.2.05a1.34,1.34,0,0,0,1.63-.93l2.17-7.94,13.37-7.16a6.1,6.1,0,0,0,5,3v15l-6,5.59a1.33,1.33,0,0,0-.13,1.87l.1.15a1.52,1.52,0,0,0,2,0l4-3.68v5.85l-6,5.58a1.34,1.34,0,0,0-.13,1.88l.1.15a1.52,1.52,0,0,0,2,0l4-3.68v7.2c0,.47-1.45,1.35-1.45,2.36a2.72,2.72,0,0,0,2.72,2.72,2.85,2.85,0,0,0,2.87-2.72c0-.95-1.14-1.79-1.14-2.28v-7.62l4,4a1.19,1.19,0,0,0,1.76,0l.08-.15a1.34,1.34,0,0,0,.17-1.88l-6-5.92v-5.85l4,4a1.19,1.19,0,0,0,1.76,0l.08-.15a1.33,1.33,0,0,0,.17-1.87l-6-5.93V195.35a11.3,11.3,0,0,0,4.74-2.9L64.58,200l1.85,8A1.3,1.3,0,0,0,68,209l.18-.05a1.32,1.32,0,0,0,1-1.6L67.89,202l5,3,1.91,8a1.33,1.33,0,0,0,1.6,1l.2-.05a1.34,1.34,0,0,0,1-1.6L76.35,207l6.31,3.7A2.7,2.7,0,0,0,84,213a2.76,2.76,0,0,0,3.75-1,2.72,2.72,0,0,0-1-3.72,2.59,2.59,0,0,0-2.61,0l-6.49-3.8,5.45-1.55a1.33,1.33,0,0,0,.92-1.64l-.06-.19a1.33,1.33,0,0,0-1.64-.92l-8.09,2.3-5-3L74.67,198a1.33,1.33,0,0,0,.92-1.64l-.06-.2a1.33,1.33,0,0,0-1.64-.91L65.8,197.5l-12.93-7.57a8.11,8.11,0,0,0-.11-5.23l13.54-7.34,7.84,2.5a1.32,1.32,0,0,0,1.67-.86l.07-.19a1.33,1.33,0,0,0-.87-1.67l-5.22-1.67,5.14-2.8,7.84,2.51a1.33,1.33,0,0,0,1.67-.86l.06-.19a1.33,1.33,0,0,0-.86-1.68Z"/><path class="cls-2" d="M142.71,2.5c0,1,1.29,1.79,1.29,2.27V12.4l-4.19-4a1.21,1.21,0,0,0-1.77,0l-.25.15a1.35,1.35,0,0,0,.09,1.88L144,16.37v5.85l-4.19-4a1.2,1.2,0,0,0-1.77,0l-.25.15a1.35,1.35,0,0,0,.09,1.88L144,26.18V41.59a11.63,11.63,0,0,0-4.72,2.65L125.89,36.9l-2.27-8.11a1.35,1.35,0,0,0-1.66-.93l-.2.05a1.33,1.33,0,0,0-.94,1.63L122.31,35l-5.15-2.79L115,24.11a1.35,1.35,0,0,0-1.64-.94l-.2.06a1.33,1.33,0,0,0-.93,1.63l1.5,5.46-6.61-3.58a2.61,2.61,0,0,0-1.4-2.21A2.7,2.7,0,0,0,102,25.61a2.75,2.75,0,0,0,1.08,3.73,2.66,2.66,0,0,0,2.7-.05l6.43,3.49L107,34.45a1.33,1.33,0,0,0-.86,1.68l.06.19a1.33,1.33,0,0,0,1.67.86l7.84-2.51,5.14,2.8-5.22,1.67a1.32,1.32,0,0,0-.86,1.67l.06.19a1.32,1.32,0,0,0,1.67.86l7.84-2.5,13.54,7.34a8.11,8.11,0,0,0-.11,5.23L124.82,59.5l-8.09-2.29a1.33,1.33,0,0,0-1.64.91l-.06.2A1.33,1.33,0,0,0,116,60l5.45,1.55-5.05,3-8.09-2.3a1.33,1.33,0,0,0-1.64.92l-.06.19a1.33,1.33,0,0,0,.92,1.64l5.45,1.55-6.49,3.8a2.59,2.59,0,0,0-2.61,0,2.72,2.72,0,0,0-1,3.72,2.76,2.76,0,0,0,3.75,1A2.68,2.68,0,0,0,108,72.7l6.31-3.7L113,74.34a1.33,1.33,0,0,0,1,1.6l.2,0a1.33,1.33,0,0,0,1.6-1l1.91-8,5-3-1.28,5.34a1.32,1.32,0,0,0,1,1.6l.18,0a1.29,1.29,0,0,0,1.57-1L126,62l13-7.59C140.28,56,143,57,144,57.35V71.94l-6.17,5.93a1.32,1.32,0,0,0,.07,1.87l0,.15a1.39,1.39,0,0,0,1.93,0l4.13-4v5.85l-6.17,5.92a1.33,1.33,0,0,0,.07,1.88l0,.15a1.39,1.39,0,0,0,1.93,0l4.13-4v7.62c0,.49-1.33,1.33-1.33,2.28a2.77,2.77,0,0,0,2.77,2.72,2.85,2.85,0,0,0,2.87-2.72c0-1-1.31-1.89-1.31-2.36v-7.2l3.8,3.68a1.39,1.39,0,0,0,1.93,0l.06-.15a1.34,1.34,0,0,0,0-1.88L147,82.1V76.25l3.8,3.68a1.39,1.39,0,0,0,1.93,0l.06-.15a1.33,1.33,0,0,0,0-1.87L147,72.28v-15c3-.4,3.61-1.51,4.76-3L165,61.4l2.12,7.94a1.31,1.31,0,0,0,1.61.93l.18,0a1.34,1.34,0,0,0,.93-1.64l-1.45-5.29,5.14,2.79L175.74,74a1.33,1.33,0,0,0,1.63.93l.2,0a1.33,1.33,0,0,0,.93-1.64L177.06,68l6.42,3.49a2.71,2.71,0,0,0,1.44,2.29,2.76,2.76,0,0,0,3.72-1.12A2.71,2.71,0,0,0,187.53,69a2.59,2.59,0,0,0-2.61,0l-6.61-3.58,5.4-1.73a1.33,1.33,0,0,0,.86-1.67l-.06-.19a1.34,1.34,0,0,0-1.67-.87l-8,2.57-5.15-2.8,5.4-1.72a1.33,1.33,0,0,0,.86-1.67l-.06-.2a1.33,1.33,0,0,0-1.67-.86l-8,2.56L153,51.67a8,8,0,0,0,.31-2.2,7.87,7.87,0,0,0-.59-3L166,38.67,174,40.92A1.34,1.34,0,0,0,175.6,40l.05-.19a1.34,1.34,0,0,0-.91-1.65l-5.28-1.49,5-3L182.42,36a1.32,1.32,0,0,0,1.65-.91l.05-.2a1.33,1.33,0,0,0-.91-1.64l-5.28-1.5,6.31-3.7A2.68,2.68,0,0,0,187,28a2.75,2.75,0,0,0,1-3.77,2.72,2.72,0,0,0-3.72-1,2.57,2.57,0,0,0-1.31,2.25l-6.49,3.8,1.31-5.51a1.33,1.33,0,0,0-1-1.6l-.21,0a1.32,1.32,0,0,0-1.6,1l-2,8.18-5,3,1.31-5.51a1.32,1.32,0,0,0-1-1.6l-.21,0a1.35,1.35,0,0,0-1.62,1l-2,8.18-13.19,7.79A11.25,11.25,0,0,0,147,41.66V25.84l5.78-5.58a1.33,1.33,0,0,0,.09-1.88l-.23-.15a1.22,1.22,0,0,0-1.79,0L147,21.87V16l5.78-5.58a1.33,1.33,0,0,0,.09-1.88l-.23-.15a1.23,1.23,0,0,0-1.79,0L147,12.06V4.86c0-.48,1.2-1.35,1.2-2.36A2.89,2.89,0,0,0,146.4,0h-2.19A2.58,2.58,0,0,0,142.71,2.5Z"/><path class="cls-3" d="M146.55,169l2.45,1.39-1.71.42a.91.91,0,0,0-.67,1.1l0,.07a.91.91,0,0,0,1.1.67l3.65-.89,2.05,1.16-4.08,1a.91.91,0,0,0-.67,1.1v.07a.92.92,0,0,0,1.11.67l6-1.47,2.66,1.51-6.39,1.56a.92.92,0,0,0-.67,1.11l0,.07a.91.91,0,0,0,1.1.67l8.34-2,3.41,1.94.1,0a3.17,3.17,0,0,0-.12.88c0,.11,0,.23,0,.35L161,182.3l-8.47-1.91a.9.9,0,0,0-1.09.69l0,.06a.92.92,0,0,0,.69,1.1l6.52,1.47L156,185.28l-6.13-1.39a.92.92,0,0,0-1.1.69v.07a.91.91,0,0,0,.69,1.09l4.18.95-2.08,1.23-3.66-.83a.92.92,0,0,0-1.1.69v.07a.91.91,0,0,0,.69,1.09l1.7.39-2.41,1.43a1.05,1.05,0,1,0,1.07,1.81l2.42-1.43-.48,1.68a.91.91,0,0,0,.63,1.13l.06,0a.91.91,0,0,0,1.13-.62l1-3.62,2-1.2-1.15,4a.91.91,0,0,0,.62,1.13l.07,0a.91.91,0,0,0,1.13-.63l1.71-6,2.63-1.56-1.81,6.33a.93.93,0,0,0,.63,1.13h.08a.93.93,0,0,0,1.14-.62l2.38-8.26,3.39-1.86a2.08,2.08,0,0,0,1.51.8v3.53l-6.19,6.26a.93.93,0,0,0-.13,1.29l0,.05a1.18,1.18,0,0,0,1.5,0l4.8-4.8v3.08L162.46,197a.94.94,0,0,0-.14,1.3l0,0a1.19,1.19,0,0,0,1.5,0l3.15-3.06v2.41l-2.8,2.68a.93.93,0,0,0-.14,1.29l0,.05a1.18,1.18,0,0,0,1.5,0l1.41-1.22v2.8c0,.58-.08,1.81.5,1.81h.05c.59,0,2.45-1.23,2.45-1.81v-2.84l.56,1.26c.35.37.39.39.76,0l.13-.05c.36-.35.8-.92.45-1.29l-1.9-2.72v-2.36l2.25,3.05c.34.36.38.38.75,0l.13,0c.37-.35.8-.93.45-1.29L170,192.47v-3.06l3.88,4.77c.34.37.38.39.75,0l.13-.05c.37-.35.8-.92.45-1.29L170,186.65v-3.53c0-.17.26-.46.63-.83l2.51,1.77,2.45,8.21a.9.9,0,0,0,1.12.61l.06,0a.91.91,0,0,0,.6-1.14l-1.92-6.29L178,186.9l1.87,6a.91.91,0,0,0,1.14.6l.07,0a.92.92,0,0,0,.61-1.14l-1.23-4,2.05,1.17,1.09,3.59a.91.91,0,0,0,1.14.61l.07,0a.93.93,0,0,0,.61-1.14l-.51-1.68,2.44,1.39a1.05,1.05,0,1,0,1-1.83L186,189l1.7-.41a.92.92,0,0,0,.67-1.11v-.07a.92.92,0,0,0-1.11-.67l-3.65.9-2.1-1.2,4.16-1a.91.91,0,0,0,.67-1.1v-.07a.92.92,0,0,0-1.11-.67l-6.11,1.5-2.67-1.53,6.49-1.58a.92.92,0,0,0,.67-1.11l0-.07a.91.91,0,0,0-1.1-.67L174,182.19l-3.19-1.82c0-.12,0-.23,0-.35a3.54,3.54,0,0,0-.15-1l3.38-2,8.37,1.89a.9.9,0,0,0,1.09-.69l0-.06a.92.92,0,0,0-.69-1.1l-6.42-1.45,2.63-1.56,6.06,1.37a.91.91,0,0,0,1.09-.69l0-.07a.91.91,0,0,0-.69-1.09l-4.1-.93,2-1.19,3.67.83a.91.91,0,0,0,1.09-.69l0-.07a.93.93,0,0,0-.69-1.1l-1.71-.38,2.42-1.44a1.05,1.05,0,1,0-1.08-1.81l-2.41,1.43.48-1.68a.91.91,0,0,0-.63-1.13l-.07,0a.91.91,0,0,0-1.13.63l-1,3.61-2.08,1.23,1.18-4.12a.91.91,0,0,0-.63-1.13l-.06,0a.93.93,0,0,0-1.13.63L178,172.28l-2.65,1.57,1.84-6.43a.92.92,0,0,0-.62-1.13l-.06,0a.9.9,0,0,0-1.11.63L173,175.26l-3.25,2c-.06,0,0,.08,0,.12-.27-.19-.13-.35-.46-.45,0-.1.75-.21.75-.33v-3.9l5.25-6.23c.35-.37-.2-.94-.57-1.29l0,0c-.37-.35-.53-.33-.87,0L170,169.9v-3.06l3.62-4.5c.35-.37-.2-1-.57-1.3l0,0c-.37-.35-.53-.33-.87,0L170,164.08v-2.36l1.94-2.72c.35-.37-.2-.94-.57-1.29l0-.05c-.37-.35-.53-.33-.88,0L170,159v-2.84c0-.59-1.86-1.12-2.45-1.12h-.05c-.58,0-.5.53-.5,1.12v2.8l-1.42-1.22a1.12,1.12,0,0,0-1.46,0l-.08.05c-.37.35-.17.92.17,1.29l2.79,2.68v2.41L163.84,161a1.15,1.15,0,0,0-1.47,0l-.07,0c-.37.35-.17.93.17,1.3l4.53,4.52v3.07l-4.81-4.8a1.12,1.12,0,0,0-1.46,0l-.08,0c-.37.35-.17.92.17,1.29l6.18,6.26v3.87c0,.13-.26.25-.22.36a4.14,4.14,0,0,0-1.11.5,1.48,1.48,0,0,0-.27-.16L162,175.35,159.48,167a.92.92,0,0,0-1.14-.61l-.07,0a.9.9,0,0,0-.61,1.14l2,6.39-2.68-1.53-1.83-6a.92.92,0,0,0-1.14-.61l-.07,0a.93.93,0,0,0-.61,1.14l1.25,4.1-2.1-1.2-1.09-3.59a.93.93,0,0,0-1.14-.61l-.07,0a.93.93,0,0,0-.61,1.14l.51,1.68-2.44-1.39a1.05,1.05,0,1,0-1,1.83Z"/><path class="cls-3" d="M1.79,66.83a1.06,1.06,0,0,0,1.44.39l2.45-1.39-.52,1.68a.93.93,0,0,0,.61,1.14l.07,0A.91.91,0,0,0,7,68.06l1.09-3.59,2-1.17-1.23,4a.92.92,0,0,0,.61,1.14l.07,0a.91.91,0,0,0,1.14-.6l1.87-6,2.6-1.48-1.92,6.29a.9.9,0,0,0,.61,1.14l.07,0a.91.91,0,0,0,1.13-.61l2.51-8.21,2.6-1.77c.37.37.82.66.82.83v3.53l-5.38,6.23c-.35.37-.08.94.29,1.29l.17,0c.37.35.51.33.85,0L21,64.41v3.06L17.25,72c-.35.36-.08.94.29,1.29l.18,0c.36.35.5.33.85,0l2.43-3v2.36l-2.07,2.72c-.35.37-.07.94.29,1.29l.18.05c.36.35.5.33.85,0L21,75.35v2.84c0,.58,1.48,1.81,2.07,1.81h.06c.58,0,.87-1.23.87-1.81v-2.8l1.24,1.22a1,1,0,0,0,1.34,0l.07-.05a.91.91,0,0,0,0-1.29L24,72.63V70.22l3,3.06a1,1,0,0,0,1.33,0l.07,0a.92.92,0,0,0,0-1.3L24,67.46V64.38l4.63,4.8a1,1,0,0,0,1.34,0l.07,0a.92.92,0,0,0,0-1.29l-6-6.26V58.09a1.62,1.62,0,0,0,1.32-.8l3.2,1.86,2.38,8.26A.93.93,0,0,0,32,68h.08a.92.92,0,0,0,.63-1.13l-1.81-6.33,2.64,1.56,1.7,6a.91.91,0,0,0,1.13.63l.07,0a.92.92,0,0,0,.63-1.13l-1.16-4,2,1.2,1,3.62a.91.91,0,0,0,1.13.62l.07,0a.91.91,0,0,0,.62-1.13l-.48-1.68,2.42,1.43a1.05,1.05,0,0,0,1.08-1.81l-2.42-1.43,1.7-.39a.91.91,0,0,0,.69-1.09v-.07a.91.91,0,0,0-1.09-.69l-3.67.83L37,61.69l4.18-.95a.91.91,0,0,0,.69-1.09v-.07a.92.92,0,0,0-1.1-.69L34.6,60.28,32,58.71l6.52-1.47a.92.92,0,0,0,.69-1.1l0-.06a.9.9,0,0,0-1.09-.69L29.58,57.3l-3.27-1.93c0-.12,0-.24,0-.35a3.17,3.17,0,0,0-.12-.88l.1,0,3.41-1.94,8.34,2a.92.92,0,0,0,1.11-.67v-.07a.92.92,0,0,0-.67-1.11l-6.39-1.56,2.66-1.51,6,1.47a.92.92,0,0,0,1.11-.67V50a.9.9,0,0,0-.66-1.1l-4.09-1,2-1.16,3.65.89A.9.9,0,0,0,44,47l0-.07a.91.91,0,0,0-.67-1.1l-1.7-.42L44.07,44a1.05,1.05,0,1,0-1-1.83l-2.44,1.39.51-1.68a.92.92,0,0,0-.61-1.14l-.07,0a.93.93,0,0,0-1.14.61L38.19,44.9l-2.1,1.2L37.34,42a.92.92,0,0,0-.61-1.14l-.07,0a.92.92,0,0,0-1.14.61l-1.83,6L31,49,33,42.6a.9.9,0,0,0-.6-1.14l-.07,0a.93.93,0,0,0-1.14.61l-2.53,8.31-3.36,1.91a.83.83,0,0,0-.21.16,3.72,3.72,0,0,0-1-.5c0-.11,0-.23,0-.36V47.69l6-6.26a.91.91,0,0,0,0-1.29l0,0a1,1,0,0,0-1.37,0L24,44.93V41.86l4.36-4.52a.92.92,0,0,0,0-1.3l0,0A1,1,0,0,0,27,36l-3,3.06V36.68L26.62,34a.91.91,0,0,0,0-1.29l0-.05a1,1,0,0,0-1.37,0L24,33.92v-2.8c0-.59-.29-1.12-.87-1.12h-.06c-.59,0-2.07.53-2.07,1.12V34l-.69-1.26a.64.64,0,0,0-1,0l.08.05c-.37.35-.83.92-.48,1.29L21,36.72v2.36l-2.37-3a.64.64,0,0,0-1,0l.08,0c-.37.35-.83.93-.48,1.3L21,41.84V44.9l-4-4.77a.64.64,0,0,0-1,0l.07,0c-.36.35-.82.92-.47,1.29L21,47.66v3.9c0,.12.52.23.56.33-.33.1-.38.26-.65.45-.05,0,0-.08,0-.12l-3.26-2L15.26,41.9a.9.9,0,0,0-1.11-.63l-.06,0a.92.92,0,0,0-.62,1.13l1.84,6.43-2.65-1.57-1.73-6.05A.92.92,0,0,0,9.8,40.6l-.06,0a.91.91,0,0,0-.63,1.13l1.18,4.12L8.21,44.64,7.18,41a.91.91,0,0,0-1.13-.63l-.07,0a.92.92,0,0,0-.63,1.13l.48,1.68L3.42,41.8a1.05,1.05,0,1,0-1.08,1.81l2.42,1.44-1.71.38a.93.93,0,0,0-.69,1.1l0,.07a.91.91,0,0,0,1.09.69l3.67-.83,2,1.19-4.1.93a.91.91,0,0,0-.69,1.09l0,.07a.91.91,0,0,0,1.09.69l6.06-1.37,2.63,1.56L7.75,52.07a.91.91,0,0,0-.68,1.1v.06a.9.9,0,0,0,1.09.69L16.55,52l3.38,2a3.21,3.21,0,0,0-.15,1c0,.12,0,.23,0,.35L16.6,57.19,8.16,55.12a.91.91,0,0,0-1.1.67l0,.07A.92.92,0,0,0,7.71,57l6.49,1.58-2.67,1.53-6.11-1.5a.92.92,0,0,0-1.11.67v.07A.91.91,0,0,0,5,60.42l4.16,1L7,62.64l-3.65-.9a.91.91,0,0,0-1.1.67l0,.07a.92.92,0,0,0,.67,1.11l1.7.41L2.19,65.39A1.05,1.05,0,0,0,1.79,66.83Z"/><path class="cls-2" d="M144.21,263h2.19a2.58,2.58,0,0,0-1.08-.23A2.79,2.79,0,0,0,144.21,263Z"/><path class="cls-2" d="M87.55,167.34a2.75,2.75,0,0,0,1.08-3.73A2.69,2.69,0,0,0,85,162.53a2.61,2.61,0,0,0-1.4,2.21l-6.61,3.58,1.5-5.46a1.33,1.33,0,0,0-.93-1.63l-.2-.06a1.33,1.33,0,0,0-1.63.94l-2.22,8.11L68.31,173l1.5-5.47a1.33,1.33,0,0,0-.93-1.63l-.2,0a1.32,1.32,0,0,0-1.63.93l-2.22,8.11-13.3,7.34A11.09,11.09,0,0,0,47,179.59V164.18l6-5.92a1.33,1.33,0,0,0-.08-1.88l-.2-.15a1.09,1.09,0,0,0-1.67,0l-4,4v-5.85l6-5.93a1.33,1.33,0,0,0-.08-1.88l-.2-.15a1.1,1.1,0,0,0-1.67,0l-4,4v-7.63c0-.48,1.1-1.32,1.1-2.27a2.79,2.79,0,0,0-2.8-2.73,2.7,2.7,0,0,0-2.69,2.73c0,1,1.39,1.88,1.39,2.36v7.2l-4-3.69a1.44,1.44,0,0,0-2,0l-.19.15a1.34,1.34,0,0,0,.19,1.88L44,154v5.85l-4-3.68a1.43,1.43,0,0,0-2,0l-.19.15a1.34,1.34,0,0,0,.19,1.88l6,5.58v15.82a12,12,0,0,0-4.4,2.39l-13.38-7.79-2-8.18a1.35,1.35,0,0,0-1.62-1l-.21.05a1.32,1.32,0,0,0-1,1.6l1.31,5.51-5-3-2-8.18a1.32,1.32,0,0,0-1.6-1l-.2,0a1.33,1.33,0,0,0-1,1.6l1.32,5.51-6.49-3.8a2.6,2.6,0,0,0-1.32-2.25,2.72,2.72,0,0,0-3.72.95A2.76,2.76,0,0,0,3.67,166a2.68,2.68,0,0,0,2.71,0l6.31,3.7-5.28,1.5a1.33,1.33,0,0,0-.91,1.64l0,.2A1.32,1.32,0,0,0,8.2,174l7.91-2.24,5.05,3-5.28,1.49a1.34,1.34,0,0,0-.91,1.65l0,.19a1.34,1.34,0,0,0,1.65.92l7.91-2.25,13.31,7.8a7.87,7.87,0,0,0-.59,3,8,8,0,0,0,.31,2.2l-13.19,7.15-8-2.56a1.34,1.34,0,0,0-1.67.86l-.06.2a1.33,1.33,0,0,0,.86,1.67l5.4,1.72-5.15,2.8-8-2.57a1.35,1.35,0,0,0-1.68.87l-.06.19a1.33,1.33,0,0,0,.86,1.67l5.4,1.73L5.7,207a2.59,2.59,0,0,0-2.61,0A2.71,2.71,0,0,0,2,210.63a2.76,2.76,0,0,0,3.72,1.12,2.71,2.71,0,0,0,1.44-2.29L13.57,206l-1.45,5.29a1.33,1.33,0,0,0,.93,1.64l.2,0a1.32,1.32,0,0,0,1.63-.93l2.17-7.94,5.15-2.79-1.45,5.29a1.33,1.33,0,0,0,.93,1.64l.2.05a1.34,1.34,0,0,0,1.63-.93l2.17-7.94,13.37-7.16a6.1,6.1,0,0,0,5,3v15l-6,5.59a1.33,1.33,0,0,0-.13,1.87l.1.15a1.52,1.52,0,0,0,2,0l4-3.68v5.85l-6,5.58a1.34,1.34,0,0,0-.13,1.88l.1.15a1.52,1.52,0,0,0,2,0l4-3.68v7.2c0,.47-1.45,1.35-1.45,2.36a2.72,2.72,0,0,0,2.72,2.72,2.85,2.85,0,0,0,2.87-2.72c0-.95-1.14-1.79-1.14-2.28v-7.62l4,4a1.19,1.19,0,0,0,1.76,0l.08-.15a1.34,1.34,0,0,0,.17-1.88l-6-5.92v-5.85l4,4a1.19,1.19,0,0,0,1.76,0l.08-.15a1.33,1.33,0,0,0,.17-1.87l-6-5.93V195.35a11.3,11.3,0,0,0,4.74-2.9L64.58,200l1.85,8A1.3,1.3,0,0,0,68,209l.18-.05a1.32,1.32,0,0,0,1-1.6L67.89,202l5,3,1.91,8a1.33,1.33,0,0,0,1.6,1l.2-.05a1.34,1.34,0,0,0,1-1.6L76.35,207l6.31,3.7A2.7,2.7,0,0,0,84,213a2.76,2.76,0,0,0,3.75-1,2.72,2.72,0,0,0-1-3.72,2.59,2.59,0,0,0-2.61,0l-6.49-3.8,5.45-1.55a1.33,1.33,0,0,0,.92-1.64l-.06-.19a1.33,1.33,0,0,0-1.64-.92l-8.09,2.3-5-3L74.67,198a1.33,1.33,0,0,0,.92-1.64l-.06-.2a1.33,1.33,0,0,0-1.64-.91L65.8,197.5l-12.93-7.57a8.11,8.11,0,0,0-.11-5.23l13.54-7.34,7.84,2.5a1.32,1.32,0,0,0,1.67-.86l.07-.19a1.33,1.33,0,0,0-.87-1.67l-5.22-1.67,5.14-2.8,7.84,2.51a1.33,1.33,0,0,0,1.67-.86l.06-.19a1.33,1.33,0,0,0-.86-1.68l-5.22-1.67,6.43-3.49A2.66,2.66,0,0,0,87.55,167.34Z"/></g></g></svg>