<svg xmlns="http://www.w3.org/2000/svg" xmlns:xlink="http://www.w3.org/1999/xlink" viewBox="0 0 1400 981"><defs><style>.cls-1{fill:none;}.cls-2{fill:#a6afd1;}.cls-3{fill:#fefefe;}.cls-4{fill:#5d6687;}.cls-5{fill:url(#New_Pattern_Swatch_1);}</style><pattern id="New_Pattern_Swatch_1" data-name="New Pattern Swatch 1" width="165" height="199" patternUnits="userSpaceOnUse" viewBox="0 0 165 199"><rect class="cls-1" width="165" height="199"/><path class="cls-2" d="M39.66,14.79,31,19v6.66a5.3,5.3,0,0,1,3.59,1.59l5.75-3.39Z"/><path class="cls-2" d="M30,28.72a3.66,3.66,0,1,0,3.66,3.66C33.63,29.92,32.43,28.72,30,28.72Z"/><path class="cls-2" d="M24.92,37.36l-5.56,3.42.33,8.87L27,45.72V38.81C27,38.49,25.59,38,24.92,37.36Z"/><path class="cls-2" d="M165,199H0V0H165ZM99.53,38.42l-1.38.77-5.63-2.34,0,1,3.91,2.3-2.6,1.45a1.3,1.3,0,0,0-.49,1.75l0,.06a1.28,1.28,0,0,0,1.74.49l2.59-1.45-.15,4.37.83.58,1-5.91,1.35-.76-.15,4.37.83.58,1-5.91,1.16-.65-.15,4.37.83.58,1-5.91,4-2.22,1.59.86.07,0v4.61l-4.67,3.74,1,.44L111,43.37v1.35l-4.67,3.75,1,.43L111,46.66v1.57L106.33,52l1,.43L111,50.17v2.92c0,.71.46,1.91,1.16,1.91h.21c.71,0,.63-1.2.63-1.91V50.15l4.18,2.27.74-.45L113,48.22V46.64l4.18,2.27.74-.45L113,44.71V43.34l4.18,2.28.74-.45L113,41.41V36.84l1.87-.93.18,0,4,2.28,1,5.92.85-.56-.1-4.38,1.16.66,1,5.92.83-.56-.1-4.38,1.35.77,1,5.93.83-.57-.1-4.38,2.57,1.48a1.29,1.29,0,0,0,1.75-.47l0-.06a1.28,1.28,0,0,0-.47-1.75l-2.58-1.49L132,38.05l.05-1-5.66,2.28L125,38.55,129,36.3l0-1-5.67,2.28-1.17-.68,3.93-2.25.06-1L120.49,36l-4-2.3-.09,0,0-1.67.19-.08,4-2.24,5.58,2.19-.06-1-3.82-2.15,1.17-.66L129,30.2l-.06-1-3.82-2.15,1.36-.76,5.58,2.19-.06-1-3.82-2.15,2.59-1.46a1.27,1.27,0,0,0,.49-1.74l0-.06a1.28,1.28,0,0,0-1.75-.49L126.93,23,127,18.5l-.82-.55-.94,6-1.37.77.07-4.53-.82-.55-.94,6-1.18.67.07-4.54-.82-.55-.94,6-4,2.25-.13.09-1.9-.91c0-.06-.27-.13-.27-.2V23.92l5.06-3.75-1-.45L113,22V20.63l5.06-3.75-1-.46-4,2.28V17.12l5.06-3.76-1-.45-4,2.28V12.28c0-.71.08-1.28-.63-1.28h-.21A1.19,1.19,0,0,0,111,12.28v2.88l-3.76-2.24-.87.44L111,17.11v1.56l-3.76-2.24-.87.44L111,20.62V22l-3.76-2.24-.87.44L111,23.91v4.63c0,.07-.06.14,0,.21l-1.47.85a.47.47,0,0,0-.12-.07l-4-2.29-.88-6-.83.55,0,4.53-1.17-.67-.88-6.05-.83.54,0,4.54-1.37-.79-.87-6-.83.54,0,4.54L95.21,21.4a1.27,1.27,0,0,0-1.75.47l0,.06a1.29,1.29,0,0,0,.47,1.75l2.58,1.48-3.84,2.11-.07,1,5.6-2.14,1.35.78L95.67,29l-.07,1,5.61-2.13,1.15.66-3.84,2.11-.07,1,5.61-2.14,4,2.28,0,0,0,1.79-4,2.24-5.64-2.34,0,1,3.91,2.3-1.18.66-5.64-2.34,0,1ZM42.83,126.7l1.36-.76,5.58,2.2-.06-1L45.89,125l2.59-1.45a1.28,1.28,0,0,0,.49-1.75l0-.06a1.28,1.28,0,0,0-1.75-.49l-2.59,1.46.07-4.54-.82-.55-.94,6-1.37.78.07-4.54-.82-.55-.94,6-1.18.67.07-4.54-.82-.55L37,127l-4,2.25-.13.09-1.74-.91c0-.06-.1-.13-.1-.2v-4.62l4.9-3.75-.94-.45-4,2.27v-1.36l4.9-3.75-.94-.45-4,2.27v-1.58L35.9,113l-.94-.45-4,2.27v-2.91c0-.71-.25-.93-1-.93h-.21c-.7,0-.83.22-.83.93v2.88l-3.92-2.24-.79.44L29,116.76v1.56l-3.92-2.24-.79.44L29,120.27v1.34l-3.92-2.24-.79.44L29,123.56v4.63c0,.08-.23.15-.22.21l-1.55.85-.16-.07-4-2.29-.89-6-.84.54,0,4.53-1.17-.67-.88-6-.83.55,0,4.53-1.37-.78-.87-6-.83.54,0,4.54-2.58-1.48a1.28,1.28,0,0,0-1.75.47l0,.06a1.29,1.29,0,0,0,.47,1.75l2.58,1.48-3.84,2.11-.07,1,5.6-2.13,1.35.77-3.84,2.11-.07,1,5.6-2.14,1.16.66-3.84,2.11-.07,1,5.61-2.14,4,2.28,0,0,0,1.79-4,2.24-5.63-2.34,0,1,3.91,2.3-1.19.66-5.63-2.34,0,1,3.91,2.3-1.38.77-5.64-2.34,0,1,3.92,2.3-2.6,1.46a1.29,1.29,0,0,0-.49,1.74l0,.06a1.27,1.27,0,0,0,1.74.49l2.59-1.45-.15,4.37.83.58,1-5.91,1.35-.76-.15,4.38.83.57,1-5.91,1.16-.65-.15,4.37.83.58,1-5.91L27,135.58l1.77.86s.23,0,.23,0v4.6l-4.83,3.75,1,.43L29,143v1.35l-4.83,3.75,1,.44L29,146.32v1.56l-4.83,3.75,1,.44L29,149.83v2.91c0,.71.13,2.26.83,2.26H30c.71,0,1-1.55,1-2.26V149.8l4,2.27.82-.45L31,147.87v-1.58l4,2.27.82-.45L31,144.36V143l4,2.27.82-.45L31,141.07v-4.58l1.7-.93.1,0,4,2.28,1,5.93.84-.57-.1-4.38,1.15.67,1,5.92.83-.57-.1-4.38,1.35.78,1,5.92.83-.57-.1-4.38L47,143.72a1.27,1.27,0,0,0,1.75-.47l0-.06a1.29,1.29,0,0,0-.47-1.75L45.73,140l3.94-2.26,0-1L44.06,139l-1.37-.78L46.63,136l0-1L41,137.24l-1.17-.68,3.93-2.25,0-1-5.66,2.28-4-2.29-.09-.05,0-1.66a1.63,1.63,0,0,0,.19-.09l4-2.24,5.58,2.2-.06-1L40,128.31l1.17-.65,5.58,2.19-.06-1Zm9.09-84.14,6.45-4.35-1.6-2.37L49.14,41l-3.86-2.17,6.44-4.35-1.6-2.37-7.63,5.14-5.86-3.31a7.06,7.06,0,0,0,.18-1.54,9,9,0,0,0-.17-1.76l5.84-3.47,7.65,4.78,1.52-2.43-6.4-4,3.8-2.25L56.7,28l1.51-2.43-6.39-4,4.66-2.77a1.86,1.86,0,0,0,.65-2.54l-.05-.09a1.87,1.87,0,0,0-2.55-.65l-4.67,2.77-.56-7.75-2.85.21L47.1,20l-3.82,2.26-.58-7.76-2.83.21-1.4-2.5L31,15.8V11.36l8.66-4.25L38.45,4.55,31,8.16V2.85c0-1-.24-1.85-1.27-1.85H29.6c-1,0-2.6.83-2.6,1.85v5L20.86,4.56,19.51,7.1l7.49,4V15.5l-6.14-3.31-1.35,2.54,7.49,4V26c0,.33-1.43.86-2.12,1.53l-5.77-3.39.51-9.19-2.83-.14-.38,7.76-3.85-2.18L13,11.15,10.16,11l-.39,7.76L5.05,16.1a1.86,1.86,0,0,0-2.53.7l0,.1a1.86,1.86,0,0,0,.7,2.53L7.9,22.09,1.59,26.22l1.57,2.4,7.54-4.95,3.84,2.17L8.23,30l1.57,2.4,7.55-4.94,6,3.37a6.77,6.77,0,0,0-.19,1.58,7.24,7.24,0,0,0,.21,1.69L17.56,37.5l-7.74-5-1.55,2.4,6.54,4.21L11,41.4l-7.74-5L1.71,38.83,8.25,43,3.58,45.8a1.87,1.87,0,0,0-.65,2.55l0,.09a1.87,1.87,0,0,0,2.55.65l4.66-2.77.44,7.52,2.85-.16-.53-9,3.79-2.25L17.16,50l2.74-.16,1,2.46L27,48.94v4.41l-7.46,4,1.28,2.55L27,56.58v5.27c0,1,1.77,2.15,2.8,2.15h.1A2.35,2.35,0,0,0,32,61.85V56.36l6.88,3.54,1.39-2.56L32,53.16V48.73l6.88,3.53,1.39-2.56L32,45.53V39a7.34,7.34,0,0,0,2.94-1.76l5.76,3.3-.38,9,2.83.1.27-7.53,3.83,2.17-.33,9,2.86.11.27-7.54,4.72,2.67a1.85,1.85,0,0,0,2.53-.71l.05-.09a1.84,1.84,0,0,0-.7-2.52Zm82.33,100,6.45-4.35-1.6-2.37L131.47,141l-3.86-2.17,6.44-4.35-1.6-2.37-7.63,5.14L119,133.92a7.06,7.06,0,0,0,.18-1.54,9,9,0,0,0-.17-1.76l5.84-3.47,7.65,4.78L134,129.5l-6.4-4,3.8-2.25L139,128l1.51-2.43-6.39-4,4.66-2.77a1.86,1.86,0,0,0,.65-2.54l-.05-.09a1.86,1.86,0,0,0-2.54-.65l-4.67,2.77-.56-7.75-2.85.21.66,9.18-3.8,2.26-.54-7.76-2.75.21-1.22-2.5L114,115.8v-4.44l8.49-4.25-1.38-2.56L114,108.16v-5.31a1.92,1.92,0,0,0-1.94-1.85h-.13a1.92,1.92,0,0,0-1.93,1.85v5l-6.31-3.31-1.51,2.54,7.82,4v4.41l-6.31-3.31-1.51,2.54,7.82,4V126c0,.33-1.76.86-2.45,1.53l-6.11-3.39.51-9.19-2.83-.14-.38,7.76-3.85-2.18.46-9.19L92.49,111l-.39,7.76-4.72-2.67a1.86,1.86,0,0,0-2.53.7l0,.1a1.86,1.86,0,0,0,.7,2.53l4.73,2.66-6.31,4.13,1.57,2.4,7.54-5,3.84,2.17L90.57,130l1.56,2.4,7.55-4.94,6,3.37a6.63,6.63,0,0,0,0,3.27l-5.79,3.43-7.74-5-1.55,2.4,6.54,4.21-3.81,2.26-7.74-5L84,138.83l6.54,4.2-4.67,2.77a1.87,1.87,0,0,0-.65,2.55l0,.09a1.87,1.87,0,0,0,2.55.65l4.66-2.77.44,7.52,2.86-.16-.51-9,3.8-2.25.47,7.53,2.82-.16,1.19,2.46,6.41-3.31v4.41l-7.62,4,1.11,2.55,6.51-3.31v5.27a2.38,2.38,0,0,0,2.13,2.15h.1a2.06,2.06,0,0,0,1.77-2.15v-5.49l7,3.54,1.48-2.56L114,153.16v-4.43l7,3.53,1.48-2.56L114,145.53V139a7.89,7.89,0,0,0,3.1-1.76l5.93,3.3-.38,9,2.84.1.26-7.53,3.83,2.17-.33,9,2.86.11.27-7.54,4.73,2.67a1.84,1.84,0,0,0,2.52-.71l.06-.09a1.85,1.85,0,0,0-.71-2.52Z"/><path class="cls-2" d="M112.3,128.72a3.66,3.66,0,1,0,3.66,3.66C116,129.92,114.76,128.72,112.3,128.72Z"/><path class="cls-2" d="M122.32,114.79,114,119v6.66a7.65,7.65,0,0,1,3.25,1.59l5.75-3.39Z"/><path class="cls-2" d="M107.58,137.36l-5.72,3.42.58,8.87,7.56-3.93v-6.91C110,138.49,108.25,138,107.58,137.36Z"/><path class="cls-3" d="M140.7,138.21l-6.45,4.35,4.73,2.67a1.85,1.85,0,0,1,.71,2.52l-.06.09a1.84,1.84,0,0,1-2.52.71l-4.73-2.67-.27,7.54-2.86-.11.33-9-3.85-2.17-.27,7.53-2.86-.1.34-9-5.84-3.3A7.89,7.89,0,0,1,114,139v6.52l8.34,4.17-1.29,2.56-7-3.53v4.43l8.34,4.18-1.29,2.56-7-3.54v5.49a2.06,2.06,0,0,1-1.77,2.15h-.1a2.38,2.38,0,0,1-2.13-2.15v-5.27l-6.41,3.31-1.32-2.55,7.73-4v-4.41l-6.41,3.31-1.29-2.46-2.78.16-.43-7.53-3.8,2.25.53,9-2.86.16-.44-7.52-4.66,2.77a1.87,1.87,0,0,1-2.55-.65l0-.09a1.87,1.87,0,0,1,.65-2.55L90.58,143,84,138.83l1.55-2.41,7.74,5,3.81-2.26-6.54-4.21,1.55-2.4,7.74,5,5.79-3.43a6.63,6.63,0,0,1,0-3.27l-6-3.37-7.55,4.94L90.57,130l6.3-4.13L93,123.67l-7.54,5-1.57-2.4,6.31-4.13-4.73-2.66a1.86,1.86,0,0,1-.7-2.53l0-.1a1.86,1.86,0,0,1,2.53-.7l4.73,2.67L92.5,111l2.85.14-.46,9.19,3.86,2.18.39-7.76,2.86.14-.46,9.19,6,3.39c.69-.67,2.45-1.2,2.45-1.53v-7.23l-7.72-4,1.31-2.54L110,115.5v-4.41l-7.72-4,1.31-2.54,6.41,3.31v-5a1.92,1.92,0,0,1,1.93-1.85h.13a1.92,1.92,0,0,1,1.94,1.85v5.31l7.19-3.61,1.23,2.56L114,111.36v4.44l7.14-3.62,1.15,2.5,2.78-.21.56,7.76,3.81-2.26-.66-9.18,2.86-.21.56,7.75,4.67-2.77a1.86,1.86,0,0,1,2.54.65l.05.09a1.86,1.86,0,0,1-.65,2.54l-4.66,2.77,6.39,4L139,128l-7.65-4.77-3.8,2.25,6.4,4-1.52,2.43-7.65-4.78L119,130.62a9,9,0,0,1,.17,1.76,7.06,7.06,0,0,1-.18,1.54l5.86,3.31,7.63-5.14,1.6,2.37-6.44,4.35,3.86,2.17,7.63-5.14Zm-30.7.6c0-.32-1.69-.82-2.37-1.45l-5.77,3.42.53,8.87,7.61-3.93Zm6-6.43c0-2.46-1.2-3.66-3.66-3.66a3.66,3.66,0,1,0,3.66,3.66Zm7-8.52-.68-9.07L114,119v6.66a7.65,7.65,0,0,1,3.25,1.59Z"/><path class="cls-3" d="M58.37,38.21l-6.45,4.35,4.73,2.67a1.84,1.84,0,0,1,.7,2.52l-.05.09a1.85,1.85,0,0,1-2.53.71l-4.72-2.67-.27,7.54-2.86-.11.33-9-3.84-2.17-.26,7.53-2.84-.1.38-9-5.75-3.3A7.34,7.34,0,0,1,32,39v6.52l8.26,4.17-1.37,2.56L32,48.73v4.43l8.26,4.18L38.89,59.9,32,56.36v5.49A2.35,2.35,0,0,1,29.9,64h-.1c-1,0-2.8-1.13-2.8-2.15V56.58l-6.24,3.31-1.15-2.55,7.39-4V48.94l-6.08,3.31-1-2.46L17.19,50l-.44-7.53L13,44.67l.53,9-2.86.16-.44-7.52L5.53,49.09A1.87,1.87,0,0,1,3,48.44l0-.09a1.87,1.87,0,0,1,.65-2.55L8.25,43l-6.54-4.2,1.55-2.41,7.74,5,3.81-2.26L8.27,34.93l1.55-2.4,7.74,5,5.78-3.43a7.24,7.24,0,0,1-.21-1.69,6.77,6.77,0,0,1,.19-1.58l-6-3.37L9.8,32.37,8.23,30l6.31-4.13L10.7,23.67,3.16,28.62l-1.57-2.4L7.9,22.09,3.17,19.43a1.86,1.86,0,0,1-.7-2.53l0-.1a1.86,1.86,0,0,1,2.53-.7l4.72,2.67L10.16,11l2.86.14-.47,9.19,3.85,2.18.37-7.76,2.82.14-.54,9.19,5.83,3.39C25.57,26.81,27,26.28,27,26V18.72l-7.55-4,1.47-2.54L27,15.5V11.09l-7.55-4,1.47-2.54L27,7.87v-5C27,1.83,28.57,1,29.6,1h.13c1,0,1.27.83,1.27,1.85V8.16l7.35-3.61,1.4,2.56L31,11.36V15.8l7.47-3.62L40,14.68l2.78-.21.56,7.76L47.11,20l-.66-9.18,2.86-.21.56,7.75,4.67-2.77a1.86,1.86,0,0,1,2.54.65l.05.09a1.86,1.86,0,0,1-.65,2.54l-4.66,2.77,6.39,4L56.7,28l-7.65-4.77-3.8,2.25,6.4,4-1.52,2.43-7.65-4.78-5.84,3.47a9,9,0,0,1,.17,1.76,7.06,7.06,0,0,1-.18,1.54l5.86,3.31,7.63-5.14,1.6,2.37-6.44,4.35L49.14,41l7.63-5.14ZM27,38.81c0-.32-1.44-.82-2.12-1.45l-5.52,3.42.36,8.87L27,45.72Zm6.63-6.43c0-2.46-1.2-3.66-3.66-3.66a3.66,3.66,0,1,0,3.66,3.66Zm6.71-8.52-.68-9.07L31,19v6.66a5.3,5.3,0,0,1,3.59,1.59Z"/><path class="cls-4" d="M92.52,36.85l0,1,3.91,2.3-2.6,1.45a1.3,1.3,0,0,0-.49,1.75l0,.06a1.28,1.28,0,0,0,1.74.49l2.59-1.45-.15,4.37.83.58,1-5.91,1.35-.76-.15,4.37.83.58,1-5.91,1.16-.65-.15,4.37.83.58,1-5.91,4-2.22,1.59.86.07,0v4.61l-4.67,3.74,1,.44L111,43.37v1.35l-4.67,3.75,1,.43L111,46.66v1.57L106.33,52l1,.43L111,50.17v2.92c0,.71.46,1.91,1.16,1.91h.21c.71,0,.63-1.2.63-1.91V50.15l4.18,2.27.74-.45L113,48.22V46.64l4.18,2.27.74-.45L113,44.71V43.34l4.18,2.28.74-.45L113,41.41V36.84l1.87-.93.18,0,4,2.28,1,5.92.85-.56-.1-4.38,1.16.66,1,5.92.83-.56-.1-4.38,1.35.77,1,5.93.83-.57-.1-4.38,2.57,1.48a1.29,1.29,0,0,0,1.75-.47l0-.06a1.28,1.28,0,0,0-.47-1.75l-2.58-1.49L132,38.05l.05-1-5.66,2.28L125,38.55,129,36.3l0-1-5.67,2.28-1.17-.68,3.93-2.25.06-1L120.49,36l-4-2.3-.09,0,0-1.67.19-.08,4-2.24,5.58,2.19-.06-1-3.82-2.15,1.17-.66L129,30.2l-.06-1-3.82-2.15,1.36-.76,5.58,2.19-.06-1-3.82-2.15,2.59-1.46a1.27,1.27,0,0,0,.49-1.74l0-.06a1.28,1.28,0,0,0-1.75-.49L126.93,23,127,18.5l-.82-.55-.94,6-1.37.77.07-4.53-.82-.55-.94,6-1.18.67.07-4.54-.82-.55-.94,6-4,2.25-.13.09-1.9-.91c0-.06-.27-.13-.27-.2V23.92l5.06-3.75-1-.45L113,22V20.63l5.06-3.75-1-.46-4,2.28V17.12l5.06-3.76-1-.45-4,2.28V12.28c0-.71.08-1.28-.63-1.28h-.21A1.19,1.19,0,0,0,111,12.28v2.88l-3.76-2.24-.87.44L111,17.11v1.56l-3.76-2.24-.87.44L111,20.62V22l-3.76-2.24-.87.44L111,23.91v4.63c0,.07-.06.14,0,.21l-1.47.85a.47.47,0,0,0-.12-.07l-4-2.29-.88-6-.83.55,0,4.53-1.17-.67-.88-6.05-.83.54,0,4.54-1.37-.79-.87-6-.83.54,0,4.54L95.21,21.4a1.27,1.27,0,0,0-1.75.47l0,.06a1.29,1.29,0,0,0,.47,1.75l2.58,1.48-3.84,2.11-.07,1,5.6-2.14,1.35.78L95.67,29l-.07,1,5.61-2.13,1.15.66-3.84,2.11-.07,1,5.61-2.14,4,2.28,0,0,0,1.79-4,2.24-5.64-2.34,0,1,3.91,2.3-1.18.66-5.64-2.34,0,1,3.91,2.3-1.38.77Z"/><path class="cls-4" d="M49.77,128.14l-.06-1L45.89,125l2.59-1.45a1.28,1.28,0,0,0,.49-1.75l0-.06a1.28,1.28,0,0,0-1.75-.49l-2.59,1.46.07-4.54-.82-.55-.94,6-1.37.78.07-4.54-.82-.55-.94,6-1.18.67.07-4.54-.82-.55L37,127l-4,2.25-.13.09-1.74-.91c0-.06-.1-.13-.1-.2v-4.62l4.9-3.75-.94-.45-4,2.27v-1.36l4.9-3.75-.94-.45-4,2.27v-1.58L35.9,113l-.94-.45-4,2.27v-2.91c0-.71-.25-.93-1-.93h-.21c-.7,0-.83.22-.83.93v2.88l-3.92-2.24-.79.44L29,116.76v1.56l-3.92-2.24-.79.44L29,120.27v1.34l-3.92-2.24-.79.44L29,123.56v4.63c0,.08-.23.15-.22.21l-1.55.85-.16-.07-4-2.29-.89-6-.84.54,0,4.53-1.17-.67-.88-6-.83.55,0,4.53-1.37-.78-.87-6-.83.54,0,4.54-2.58-1.48a1.28,1.28,0,0,0-1.75.47l0,.06a1.29,1.29,0,0,0,.47,1.75l2.58,1.48-3.84,2.11-.07,1,5.6-2.13,1.35.77-3.84,2.11-.07,1,5.6-2.14,1.16.66-3.84,2.11-.07,1,5.61-2.14,4,2.28,0,0,0,1.79-4,2.24-5.63-2.34,0,1,3.91,2.3-1.19.66-5.63-2.34,0,1,3.91,2.3-1.38.77-5.64-2.34,0,1,3.92,2.3-2.6,1.46a1.29,1.29,0,0,0-.49,1.74l0,.06a1.27,1.27,0,0,0,1.74.49l2.59-1.45-.15,4.37.83.58,1-5.91,1.35-.76-.15,4.38.83.57,1-5.91,1.16-.65-.15,4.37.83.58,1-5.91L27,135.58l1.77.86s.23,0,.23,0v4.6l-4.83,3.75,1,.43L29,143v1.35l-4.83,3.75,1,.44L29,146.32v1.56l-4.83,3.75,1,.44L29,149.83v2.91c0,.71.13,2.26.83,2.26H30c.71,0,1-1.55,1-2.26V149.8l4,2.27.82-.45L31,147.87v-1.58l4,2.27.82-.45L31,144.36V143l4,2.27.82-.45L31,141.07v-4.58l1.7-.93.1,0,4,2.28,1,5.93.84-.57-.1-4.38,1.15.67,1,5.92.83-.57-.1-4.38,1.35.78,1,5.92.83-.57-.1-4.38L47,143.72a1.27,1.27,0,0,0,1.75-.47l0-.06a1.29,1.29,0,0,0-.47-1.75L45.73,140l3.94-2.26,0-1L44.06,139l-1.37-.78L46.63,136l0-1L41,137.24l-1.17-.68,3.93-2.25,0-1-5.66,2.28-4-2.29-.09-.05,0-1.66a1.63,1.63,0,0,0,.19-.09l4-2.24,5.58,2.2-.06-1L40,128.31l1.17-.65,5.58,2.19-.06-1-3.82-2.15,1.36-.76Z"/></pattern></defs><g id="Слой_2" data-name="Слой 2"><g id="Layer_1" data-name="Layer 1"><rect class="cls-5" width="1400" height="981"/></g></g></svg>