<svg xmlns="http://www.w3.org/2000/svg" viewBox="0 0 74.39 27.6"><defs><style>.cls-1,.cls-2{fill:#5d6687;}.cls-1{fill-rule:evenodd;}</style></defs><g id="Слой_2" data-name="Слой 2"><g id="Слой_1-2" data-name="Слой 1"><polygon class="cls-1" points="11.73 0 23.68 6.9 20.89 8.48 11.73 3.19 11.73 5.16 19.24 9.5 16.45 11.07 11.73 8.35 11.73 19.32 16.43 16.61 19.29 18.14 11.73 22.51 11.73 24.41 20.89 19.12 23.68 20.7 11.73 27.6 8.97 25.98 8.97 4.82 7.25 5.84 7.25 24.96 4.49 23.34 4.49 7.47 2.76 8.49 2.76 22.32 0 20.7 0 6.9 2.76 5.28 4.49 4.26 7.25 2.64 8.97 1.62 11.73 0 11.73 0"/><path class="cls-2" d="M55.64,20.46a.29.29,0,0,1,.09-.21.28.28,0,0,1,.2-.09.31.31,0,0,1,.3.3.28.28,0,0,1-.09.2.29.29,0,0,1-.21.09.31.31,0,0,1-.29-.29Zm1.9.29a1.09,1.09,0,0,1-.42-.07,1,1,0,0,1-.32-.19.9.9,0,0,1-.21-.27.93.93,0,0,1-.07-.33.67.67,0,0,1,.07-.33.72.72,0,0,1,.16-.21.69.69,0,0,1,.22-.16.75.75,0,0,1-.17-.14.83.83,0,0,1-.12-.17.62.62,0,0,1,0-.25.59.59,0,0,1,.07-.29.69.69,0,0,1,.18-.24.7.7,0,0,1,.29-.17,1.06,1.06,0,0,1,.37-.07,1,1,0,0,1,.36.07.7.7,0,0,1,.29.17.69.69,0,0,1,.18.24.59.59,0,0,1,.07.29.49.49,0,0,1-.06.25.43.43,0,0,1-.12.17.7.7,0,0,1-.16.14.69.69,0,0,1,.22.16.72.72,0,0,1,.16.21.67.67,0,0,1,.07.33.93.93,0,0,1-.07.33.9.9,0,0,1-.21.27,1,1,0,0,1-.32.19,1.07,1.07,0,0,1-.41.07Zm10-1.2h-.48l.18-1.66h1.58v.51H67.72l-.06.52.13-.06.13-.05a.44.44,0,0,1,.16,0,1,1,0,0,1,.39.07.87.87,0,0,1,.51.51,1.12,1.12,0,0,1,0,.78,1,1,0,0,1-.22.31,1,1,0,0,1-.32.21,1.16,1.16,0,0,1-.42.08,1,1,0,0,1-.39-.07.87.87,0,0,1-.31-.18,1,1,0,0,1-.2-.25,1.12,1.12,0,0,1-.1-.31h.55a.21.21,0,0,0,0,.1.35.35,0,0,0,.1.11.4.4,0,0,0,.13.07.52.52,0,0,0,.18,0,.48.48,0,0,0,.35-.13.48.48,0,0,0,.14-.36.45.45,0,0,0-.14-.36.48.48,0,0,0-.35-.14.43.43,0,0,0-.21,0,.5.5,0,0,0-.14.1.45.45,0,0,0-.1.14ZM43,18.88h-.56a.61.61,0,0,0-.09-.18.43.43,0,0,0-.14-.16.53.53,0,0,0-.21-.11.74.74,0,0,0-.58,0,.7.7,0,0,0-.26.19,1,1,0,0,0-.19.29,1.16,1.16,0,0,0-.06.38,1.1,1.1,0,0,0,.06.37,1,1,0,0,0,.19.29.7.7,0,0,0,.26.19.81.81,0,0,0,.58,0,1,1,0,0,0,.21-.11.75.75,0,0,0,.15-.16.5.5,0,0,0,.1-.19h.57a1.36,1.36,0,0,1-.17.39,1.4,1.4,0,0,1-.27.33,1.28,1.28,0,0,1-.38.21,1.23,1.23,0,0,1-.47.09,1.33,1.33,0,0,1-1-.42,1.44,1.44,0,0,1-.29-.46,1.3,1.3,0,0,1-.11-.56,1.35,1.35,0,0,1,.11-.57,1.44,1.44,0,0,1,.29-.46,1.52,1.52,0,0,1,.44-.31,1.36,1.36,0,0,1,.53-.11,1.13,1.13,0,0,1,.45.09,1.3,1.3,0,0,1,.38.22,1.39,1.39,0,0,1,.27.32,1.11,1.11,0,0,1,.16.39Zm21.55,1.58a.29.29,0,0,1,.09-.21.28.28,0,0,1,.2-.09.31.31,0,0,1,.3.3.28.28,0,0,1-.09.2.29.29,0,0,1-.21.09.31.31,0,0,1-.29-.29Zm-9.4.27h-.54V18.58l-.34.23L54,18.4l.75-.51h.4v2.84Zm-3.13,0h-.54V18.4h-.84v-.51h2.21v.51h-.83v2.33Zm14.49,0H66V18.58l-.34.23-.27-.41.75-.51h.4v2.84Zm-17.44,0h-.54V17.89h1.89v.51H49.11v.7h1.1v.52h-1.1v1.11Zm-9,0h-2V17.89h2v.51H38.65V19H40v.52H38.65v.68h1.46v.52Zm24,0H63.6V18.58l-.34.23L63,18.4l.74-.51h.41v2.84Zm-28.35,0h-.55V17.89h.48L37,19.73V17.89h.54v2.84h-.47l-1.26-1.85v1.85Zm8.22,0h-.54V17.89H44.6A.9.9,0,0,1,45,18a.77.77,0,0,1,.3.19.8.8,0,0,1,.2.28.88.88,0,0,1,0,.73,1,1,0,0,1-.51.44l.67,1.13H45l-.58-1H44v1Zm4.28,0h-.56l-.2-.59H46.45l-.21.59h-.56l1.06-2.84h.5l1,2.84Zm-17.1,0h-.54V17.89h.47l1,2.09,1-2.09h.47v2.84H33V19.15l-.72,1.58h-.36l-.72-1.58v1.58Zm3.47,0h-.54V17.89h.54v2.84Zm22.88-1.27a.48.48,0,0,0-.35.12.39.39,0,0,0,0,.58.48.48,0,0,0,.35.12.47.47,0,0,0,.34-.12.39.39,0,0,0,0-.58.47.47,0,0,0-.34-.12Zm4.21.34H59.86v-.45h1.89v.45Zm-14.4-.16-.36-1-.36,1ZM44,19.17h.59a.44.44,0,0,0,.29-.11.39.39,0,0,0,0-.54.4.4,0,0,0-.29-.12H44v.77ZM57.54,19a.36.36,0,0,0,.27-.1.34.34,0,0,0,.11-.24.31.31,0,0,0-.11-.23.36.36,0,0,0-.27-.1.37.37,0,0,0-.28.1.31.31,0,0,0-.11.23.34.34,0,0,0,.11.24.37.37,0,0,0,.28.1Zm14.29-3.89a1.32,1.32,0,0,1-.12.57,1.56,1.56,0,0,1-.29.46,1.32,1.32,0,0,1-.44.3,1.23,1.23,0,0,1-1.06,0,1.32,1.32,0,0,1-.44-.3,1.56,1.56,0,0,1-.29-.46,1.39,1.39,0,0,1,0-1.13,1.44,1.44,0,0,1,.29-.46,1.33,1.33,0,0,1,1.94,0,1.44,1.44,0,0,1,.29.46,1.31,1.31,0,0,1,.12.56Zm-19.32-.43H52a.73.73,0,0,0-.24-.34,1,1,0,0,0-.2-.11.75.75,0,0,0-.26,0,.68.68,0,0,0-.32.07.74.74,0,0,0-.27.19,1.19,1.19,0,0,0-.18.29,1.11,1.11,0,0,0-.07.37,1.06,1.06,0,0,0,.07.37,1.26,1.26,0,0,0,.18.3.88.88,0,0,0,.27.19.83.83,0,0,0,.32.07.75.75,0,0,0,.26-.05.53.53,0,0,0,.21-.11.75.75,0,0,0,.15-.16,1.62,1.62,0,0,0,.1-.18h.56a1.34,1.34,0,0,1-.16.39,1.43,1.43,0,0,1-.28.32,1.19,1.19,0,0,1-.38.22,1.14,1.14,0,0,1-.46.09,1.18,1.18,0,0,1-.53-.12,1.23,1.23,0,0,1-.44-.3,1.59,1.59,0,0,1-.3-.46,1.51,1.51,0,0,1,0-1.13,1.47,1.47,0,0,1,.3-.46,1.25,1.25,0,0,1,.44-.31,1.32,1.32,0,0,1,1,0,1.51,1.51,0,0,1,.37.22,1.48,1.48,0,0,1,.28.33,1.4,1.4,0,0,1,.16.38Zm3.92,0h-.56a.73.73,0,0,0-.24-.34.71.71,0,0,0-.46-.15.68.68,0,0,0-.32.07.83.83,0,0,0-.27.19,1.19,1.19,0,0,0-.18.29,1.1,1.1,0,0,0-.06.37,1.06,1.06,0,0,0,.06.37,1.26,1.26,0,0,0,.18.3,1,1,0,0,0,.27.19.83.83,0,0,0,.32.07.75.75,0,0,0,.26-.05.53.53,0,0,0,.21-.11.75.75,0,0,0,.15-.16.81.81,0,0,0,.1-.18h.56a1.11,1.11,0,0,1-.16.39,1.22,1.22,0,0,1-.28.32,1.19,1.19,0,0,1-.38.22,1.14,1.14,0,0,1-.46.09,1.21,1.21,0,0,1-.53-.12,1.32,1.32,0,0,1-.44-.3,1.83,1.83,0,0,1-.3-.46,1.51,1.51,0,0,1,0-1.13,1.66,1.66,0,0,1,.3-.46,1.33,1.33,0,0,1,1-.42A1.24,1.24,0,0,1,56,14a1.48,1.48,0,0,1,.28.33,1.4,1.4,0,0,1,.16.38Zm-20.85.43a1.32,1.32,0,0,1-.11.57,1.41,1.41,0,0,1-.3.46,1.28,1.28,0,0,1-.43.3,1.24,1.24,0,0,1-.53.12,1.21,1.21,0,0,1-.53-.12,1.23,1.23,0,0,1-.44-.3,1.83,1.83,0,0,1-.3-.46,1.51,1.51,0,0,1,0-1.13,1.66,1.66,0,0,1,.3-.46,1.25,1.25,0,0,1,.44-.31,1.36,1.36,0,0,1,.53-.11,1.4,1.4,0,0,1,.53.11,1.47,1.47,0,0,1,.84,1.33Zm9.06,1.42H44.1V14.22h-.88l-.11,1.47a1,1,0,0,1-.25.65.77.77,0,0,1-.56.23h-.16l-.07,0v-.47h.07a.45.45,0,0,0,.32-.12.54.54,0,0,0,.13-.33l.14-1.92h1.91v2.84Zm-8.09,0H36V13.7h.47l1,2.1,1-2.1h.48v2.84h-.54V15l-.73,1.58h-.36L36.55,15v1.58Zm26.44,0H61.77V13.7h1.17a.81.81,0,0,1,.35.07.77.77,0,0,1,.27.17.64.64,0,0,1,.18.25.73.73,0,0,1,.06.3.62.62,0,0,1,0,.25,1.25,1.25,0,0,1-.12.17.66.66,0,0,1-.17.12.73.73,0,0,1,.23.16.57.57,0,0,1,.15.21.67.67,0,0,1,.07.33.81.81,0,0,1-.06.31.82.82,0,0,1-.2.26,1.19,1.19,0,0,1-.29.18,1.06,1.06,0,0,1-.37.06Zm10.48,0H72.25V13.7h1.18a.8.8,0,0,1,.34.07.77.77,0,0,1,.27.17.64.64,0,0,1,.18.25.73.73,0,0,1,.06.3.62.62,0,0,1,0,.25,1.25,1.25,0,0,1-.12.17.66.66,0,0,1-.17.12.73.73,0,0,1,.23.16.57.57,0,0,1,.15.21.67.67,0,0,1,.07.33.81.81,0,0,1-.06.31,1,1,0,0,1-.19.26,1.26,1.26,0,0,1-.3.18,1.1,1.1,0,0,1-.37.06Zm-42.28,0h-.54V13.7h.54V15l.94-1.26h.64l-1.06,1.4,1.12,1.44H32.2l-1-1.28v1.28Zm17,0h-.54V13.7h.54V15l.94-1.26h.63l-1.06,1.4,1.13,1.44h-.63l-1-1.28v1.28Zm-6.45,0h-.54V14.22H40v2.32h-.54V13.7h2.3v2.84Zm18.08,0h-.54V13.7h1.06a.91.91,0,0,1,.37.08.92.92,0,0,1,.31.2.9.9,0,0,1,.21.3,1,1,0,0,1,0,.74,1,1,0,0,1-.21.3,1.1,1.1,0,0,1-.31.2.91.91,0,0,1-.37.08h-.52v.94Zm-1,0h-2V13.7h2v.52H57.4v.61h1.31v.52H57.4V16h1.47v.52Zm7.45,0h-2V13.7h2v.52H64.86v.61h1.31v.52H64.86V16h1.46v.52Zm-19.08,0h-2V13.7h2v.52H45.77v.61h1.31v.52H45.77V16h1.47v.52Zm20.08,0h-.54V13.7h1.06a.91.91,0,0,1,.37.08.92.92,0,0,1,.31.2.9.9,0,0,1,.21.3,1,1,0,0,1,0,.74,1,1,0,0,1-.21.3,1.1,1.1,0,0,1-.31.2.91.91,0,0,1-.37.08h-.52v.94Zm6.11-.47a.41.41,0,0,0,.3-.12.38.38,0,0,0,.12-.29.36.36,0,0,0-.12-.28.41.41,0,0,0-.3-.12h-.64v.81Zm-10.49,0a.41.41,0,0,0,.31-.12.38.38,0,0,0,.12-.29.36.36,0,0,0-.12-.28.41.41,0,0,0-.31-.12h-.63v.81Zm6.68-1a1.06,1.06,0,0,0,.06.37,1.26,1.26,0,0,0,.18.3,1,1,0,0,0,.27.19.77.77,0,0,0,.64,0,1,1,0,0,0,.27-.19,1.26,1.26,0,0,0,.18-.3,1.06,1.06,0,0,0,.06-.37,1.1,1.1,0,0,0-.06-.37,1.19,1.19,0,0,0-.18-.29.83.83,0,0,0-.27-.19.77.77,0,0,0-.64,0,.83.83,0,0,0-.27.19,1.19,1.19,0,0,0-.18.29,1.1,1.1,0,0,0-.06.37Zm-36.25,0a1.06,1.06,0,0,0,.07.37,1.26,1.26,0,0,0,.18.3,1,1,0,0,0,.27.19.83.83,0,0,0,.32.07.88.88,0,0,0,.32-.07.85.85,0,0,0,.44-.49.87.87,0,0,0,.07-.37.9.9,0,0,0-.07-.37.79.79,0,0,0-.18-.29.7.7,0,0,0-.26-.19.71.71,0,0,0-.32-.07.68.68,0,0,0-.32.07.83.83,0,0,0-.27.19,1.19,1.19,0,0,0-.18.29,1.11,1.11,0,0,0-.07.37Zm34.47,0A.32.32,0,0,0,68,15a.38.38,0,0,0,.13-.09.71.71,0,0,0,.1-.14.44.44,0,0,0,0-.32.71.71,0,0,0-.1-.14.38.38,0,0,0-.13-.09.32.32,0,0,0-.16,0h-.52v.86Zm-7.46,0a.32.32,0,0,0,.16,0,.38.38,0,0,0,.13-.09.71.71,0,0,0,.1-.14.44.44,0,0,0,0-.32.71.71,0,0,0-.1-.14.38.38,0,0,0-.13-.09.32.32,0,0,0-.16,0h-.52v.86Zm12.41-.23h.59a.35.35,0,0,0,.26-.1.33.33,0,0,0,.1-.24.3.3,0,0,0-.1-.23.35.35,0,0,0-.26-.1h-.59v.67Zm-10.48,0h.59a.35.35,0,0,0,.26-.1.37.37,0,0,0,.1-.24.34.34,0,0,0-.1-.23.35.35,0,0,0-.26-.1h-.59v.67ZM55,9.11a2.16,2.16,0,0,1-.17.88,2.24,2.24,0,0,1-.46.7,2.2,2.2,0,0,1-.69.48,2.16,2.16,0,0,1-1.68,0,2.2,2.2,0,0,1-.69-.48,2.24,2.24,0,0,1-.46-.7,2.36,2.36,0,0,1,0-1.76,2.29,2.29,0,0,1,.46-.71A2.38,2.38,0,0,1,52,7a2.16,2.16,0,0,1,1.68,0,2.38,2.38,0,0,1,.69.48,2.29,2.29,0,0,1,.46.71,2.16,2.16,0,0,1,.17.88Zm-6.63,1.25a1,1,0,0,0,.66-.2.9.9,0,0,0,.32-.46l1,.07a2.24,2.24,0,0,1-.25.6,1.91,1.91,0,0,1-.44.5,2.06,2.06,0,0,1-1.34.47,2.21,2.21,0,0,1-.84-.17,2,2,0,0,1-.68-.48,2.27,2.27,0,0,1-.47-.7,2.36,2.36,0,0,1,0-1.76,2.31,2.31,0,0,1,.47-.71,2.06,2.06,0,0,1,2.83-.18,2,2,0,0,1,.43.5,2,2,0,0,1,.25.6l-1,.07a1.15,1.15,0,0,0-.12-.25.8.8,0,0,0-.2-.21.87.87,0,0,0-.27-.14,1,1,0,0,0-.36-.06,1.12,1.12,0,0,0-.44.09,1.22,1.22,0,0,0-.37.27,1.3,1.3,0,0,0-.25.39,1.4,1.4,0,0,0-.09.51,1.35,1.35,0,0,0,.09.5,1.5,1.5,0,0,0,.25.4,1.18,1.18,0,0,0,.37.26,1.12,1.12,0,0,0,.44.09Zm-16.74.94h-1V6.91h.91L33,10l1.43-3.1h.91V11.3h-1V9.11l-1,2.19h-.63l-1-2.19V11.3Zm5.51,0h-1V6.91h1V11.3Zm8.58,0H42.52V6.91h3.14v1H43.53v.69h2v1h-2v.77h2.2v1Zm14.9,0h-1V6.91h1.71A1.81,1.81,0,0,1,62,7a1.66,1.66,0,0,1,.49.32,1.58,1.58,0,0,1,.33.48,1.45,1.45,0,0,1,.12.59,1.4,1.4,0,0,1-.12.58,1.37,1.37,0,0,1-.33.48,1.34,1.34,0,0,1-.49.32,1.61,1.61,0,0,1-.63.12h-.7V11.3Zm-4,0h-1V6.91h1.78A1.71,1.71,0,0,1,58,7a1.61,1.61,0,0,1,.49.3,1.35,1.35,0,0,1,.31.44A1.25,1.25,0,0,1,59,8.3a1.39,1.39,0,0,1-.13.62,1.49,1.49,0,0,1-.29.41,1.12,1.12,0,0,1-.29.23l-.13.07,1,1.67H58l-.8-1.46h-.53V11.3ZM39,11.3H38V6.91h.9l1.78,2.58V6.91h1V11.3h-.9L39,8.72V11.3ZM54,9.11a1.4,1.4,0,0,0-.09-.51,1.14,1.14,0,0,0-.25-.39,1.07,1.07,0,0,0-.36-.27,1.17,1.17,0,0,0-.9,0,1.07,1.07,0,0,0-.36.27,1.14,1.14,0,0,0-.25.39,1.4,1.4,0,0,0-.09.51,1.35,1.35,0,0,0,.09.5A1.28,1.28,0,0,0,52,10a1,1,0,0,0,.36.26,1.17,1.17,0,0,0,.9,0,1,1,0,0,0,.36-.26,1.28,1.28,0,0,0,.25-.4,1.35,1.35,0,0,0,.09-.5Zm7.33-.18a.54.54,0,0,0,.4-.16.5.5,0,0,0,.16-.36A.54.54,0,0,0,61.73,8a.57.57,0,0,0-.4-.15h-.7v1Zm-3.91-.07a.53.53,0,0,0,.41-.14A.45.45,0,0,0,58,8.37.47.47,0,0,0,57.83,8a.56.56,0,0,0-.41-.13h-.77v1Z"/></g></g></svg>